<svg width="85" height="85" xmlns="http://www.w3.org/2000/svg" xmlns:xlink="http://www.w3.org/1999/xlink" xml:space="preserve" overflow="hidden"><defs><clipPath id="clip0"><rect x="909" y="521" width="85" height="85"/></clipPath></defs><g clip-path="url(#clip0)" transform="translate(-909 -521)"><path d="M924.606 606C922.97 605.636 921.303 605.364 919.773 604.667 913.788 601.955 910.136 597.394 909.182 590.864 907.833 581.697 914.015 573.364 922.742 571.379 926.697 570.485 930.349 571.303 933.894 573.015 938.621 575.303 942.864 578.333 947.015 581.53 948.303 582.53 949.591 583.53 950.818 584.606 951.394 585.106 951.727 585.015 952.242 584.576 956.091 581.333 960.091 578.288 964.379 575.636 967.318 573.818 970.333 572.091 973.742 571.349 978.576 570.288 982.955 571.545 986.879 574.424 990.849 577.333 993.182 581.303 993.849 586.212 993.864 586.349 993.939 586.455 994 586.591L994 590.409C993.955 590.53 993.879 590.651 993.849 590.788 992.727 597.833 988.773 602.576 982.136 605.106 980.924 605.561 979.636 605.697 978.394 606.015L975.076 606.015C974.773 605.758 974.394 605.833 974.045 605.758 970.561 604.955 967.455 603.273 964.439 601.409 960.061 598.712 955.985 595.591 952.045 592.273 951.621 591.924 951.379 591.909 950.955 592.273 949.894 593.197 948.788 594.076 947.682 594.939 943.364 598.303 938.939 601.5 934 603.924 932.061 604.879 930.015 605.5 927.924 606L924.606 606ZM925.894 576.061C925.485 576.091 925.061 576.091 924.651 576.151 917.97 577.242 913.515 583.106 914.106 589.803 914.773 597.439 923.394 603.682 931.273 599.667 937.076 596.712 942.273 592.909 947.288 588.833 947.636 588.545 947.561 588.409 947.258 588.167 942.561 584.303 937.712 580.636 932.273 577.864 930.288 576.849 928.242 575.924 925.909 576.061ZM955.349 588.515C956.515 589.455 957.621 590.364 958.758 591.242 962.849 594.394 967.045 597.409 971.742 599.621 973.894 600.636 976.121 601.303 978.545 600.818 983.273 599.864 986.636 597.197 988.242 592.621 989.833 588.091 988.939 583.909 985.849 580.242 983.136 577.03 977.667 574.682 972.636 576.955 969.606 578.333 966.773 580.015 964.03 581.879 961.045 583.909 958.182 586.106 955.349 588.5Z" fill="#00F6FF"/><path d="M994 566C990.909 566 987.818 566 984.727 566.015 984.151 566.015 983.955 565.879 983.985 565.288 984.03 564.076 984.015 562.864 983.985 561.651 983.985 561.136 984.151 561 984.651 561 987.773 561.03 990.894 561.015 994 561.015L994 566Z" fill="#00F6FF"/><path d="M931.879 552.742C931.924 546.197 936.788 541.167 943 540.97 945.924 540.879 948.561 541.788 950.773 543.727 951.349 544.227 951.651 544.227 952.242 543.727 958.818 538.167 968.803 541.379 970.818 549.742 971.803 553.818 970.818 557.515 967.879 560.53 962.621 565.939 957.258 571.258 951.955 576.636 951.636 576.955 951.439 577 951.106 576.651 945.758 571.242 940.379 565.864 935.061 560.439 932.894 558.227 931.894 555.5 931.894 552.742ZM943.349 546.076C943.045 546.076 942.742 546.076 942.439 546.076 942.333 546.076 942.227 546.106 942.121 546.136 939.697 546.697 938 548.106 937.227 550.485 936.439 552.97 936.985 555.212 938.788 557.061 942.864 561.242 947 565.349 951.091 569.5 951.439 569.849 951.621 569.818 951.939 569.5 952.742 568.651 953.576 567.849 954.394 567.03 957.545 563.849 960.697 560.667 963.864 557.5 965.197 556.182 966.061 554.651 966.106 552.758 966.167 549.985 964.955 547.864 962.439 546.682 959.909 545.5 957.47 545.864 955.349 547.712 954.182 548.727 953.106 549.849 952.045 550.985 951.606 551.455 951.364 551.409 950.939 550.97 949.97 549.939 948.97 548.955 947.955 547.97 946.667 546.727 945.151 546.03 943.349 546.091Z" fill="#00F6FF"/><path d="M930.273 538.758C930.167 538.879 930.076 538.985 929.985 539.091 929.03 540.045 928.061 541 927.121 541.97 926.849 542.258 926.682 542.258 926.394 541.97 924.273 539.833 922.136 537.697 920 535.576 919.727 535.303 919.712 535.121 920 534.849 920.97 533.909 921.924 532.939 922.879 531.985 923.121 531.727 923.288 531.712 923.545 531.985 925.682 534.136 927.833 536.288 929.985 538.439 930.076 538.53 930.167 538.636 930.273 538.773Z" fill="#00F6FF"/><path d="M976.258 542.288C976.136 542.197 976.03 542.121 975.939 542.03 974.955 541.061 974 540.076 973 539.106 972.742 538.849 972.758 538.682 973 538.439 975.151 536.303 977.303 534.151 979.439 532 979.697 531.742 979.864 531.758 980.121 532 981.061 532.97 982.015 533.924 982.985 534.864 983.273 535.151 983.242 535.333 982.985 535.606 980.849 537.727 978.727 539.864 976.591 541.985 976.5 542.076 976.394 542.167 976.258 542.288Z" fill="#00F6FF"/><path d="M949 526C949 524.53 949.015 523.076 949 521.606 949 521.136 949.136 520.985 949.606 521 950.879 521.03 952.151 521.03 953.424 521 953.909 521 954.015 521.167 954.015 521.621 954 524.545 954 527.485 954.015 530.409 954.015 530.879 953.879 531.03 953.409 531.03 952.136 531 950.864 531 949.591 531.03 949.106 531.03 948.985 530.849 949 530.394 949.015 528.924 949 527.47 949 526Z" fill="#00F6FF"/><path d="M914.015 566C912.545 566 911.091 565.985 909.621 566 909.167 566 908.985 565.894 909 565.409 909.03 564.106 909.03 562.818 909 561.515 909 561.121 909.121 561 909.515 561 912.5 561 915.485 561.015 918.47 561 918.939 561 919.015 561.197 919.015 561.591 919 562.864 918.985 564.136 919.015 565.409 919.015 565.879 918.864 566.03 918.394 566.015 916.924 565.985 915.47 566.015 914 566.015Z" fill="#00F6FF"/></g></svg>