<svg id="svg" version="1.1" xmlns="http://www.w3.org/2000/svg" xmlns:xlink="http://www.w3.org/1999/xlink" width="400" height="400" viewBox="0, 0, 400,400"><g id="svgg"><path id="path0" d="M0.000 200.000 L 0.000 400.000 200.000 400.000 L 400.000 400.000 400.000 200.000 L 400.000 0.000 200.000 0.000 L 0.000 0.000 0.000 200.000 M108.479 140.700 C 110.678 141.965,113.597 143.630,114.964 144.400 C 116.332 145.170,117.884 146.115,118.414 146.500 C 118.944 146.885,119.500 147.200,119.648 147.200 C 119.797 147.200,121.123 147.932,122.596 148.827 C 124.068 149.721,125.572 150.563,125.936 150.697 C 126.301 150.831,127.157 151.359,127.838 151.871 C 128.519 152.382,129.261 152.800,129.489 152.800 C 129.716 152.800,130.117 153.058,130.379 153.374 C 130.641 153.690,131.391 154.066,132.047 154.210 C 132.702 154.354,133.453 154.816,133.715 155.236 C 133.978 155.656,134.485 156.000,134.842 156.000 C 135.200 156.000,135.950 156.360,136.509 156.800 C 137.069 157.240,137.695 157.600,137.901 157.600 C 138.107 157.600,138.596 157.953,138.986 158.385 C 139.377 158.817,140.328 159.378,141.099 159.633 C 146.045 161.265,147.200 163.057,147.200 169.098 C 147.200 175.700,146.759 176.018,141.800 172.982 C 140.920 172.443,139.480 171.631,138.600 171.177 C 137.720 170.722,135.560 169.465,133.800 168.383 C 132.040 167.301,129.880 166.053,129.000 165.610 C 125.531 163.864,122.160 161.901,121.374 161.169 C 120.920 160.746,120.304 160.400,120.006 160.400 C 119.707 160.400,119.179 160.152,118.831 159.850 C 118.484 159.547,116.949 158.642,115.420 157.839 C 113.891 157.036,112.361 156.143,112.020 155.856 C 111.679 155.568,110.240 154.741,108.823 154.017 C 107.405 153.294,106.004 152.461,105.710 152.167 C 104.843 151.300,102.473 151.016,101.684 151.685 C 101.308 152.004,100.100 152.788,99.000 153.427 C 97.900 154.067,96.640 154.808,96.200 155.075 C 95.760 155.342,94.590 155.996,93.600 156.528 C 92.610 157.060,91.260 157.810,90.600 158.193 C 89.940 158.576,88.570 159.365,87.555 159.945 C 86.541 160.525,84.471 161.709,82.955 162.576 C 81.440 163.442,80.067 164.367,79.905 164.631 C 79.743 164.895,79.114 165.235,78.507 165.388 C 77.901 165.540,77.154 165.875,76.849 166.132 C 76.543 166.389,75.595 166.960,74.741 167.400 C 72.656 168.475,66.254 172.204,63.900 173.715 L 62.000 174.935 62.000 199.198 L 62.000 223.461 63.029 224.430 C 64.030 225.374,68.091 227.798,70.688 229.003 C 71.396 229.332,73.016 230.280,74.288 231.111 C 77.655 233.312,78.061 233.552,79.554 234.236 C 80.299 234.577,81.424 235.203,82.054 235.628 C 82.684 236.053,83.738 236.764,84.396 237.209 C 85.054 237.654,86.809 238.658,88.296 239.440 C 89.783 240.222,91.658 241.253,92.463 241.731 C 102.950 247.962,103.352 248.109,105.800 246.602 C 106.680 246.061,107.850 245.388,108.400 245.108 C 109.351 244.623,114.727 241.544,116.000 240.756 C 116.330 240.551,117.140 240.111,117.800 239.777 C 118.460 239.443,119.810 238.637,120.800 237.986 C 121.790 237.335,123.230 236.512,124.000 236.156 C 124.770 235.801,125.490 235.378,125.600 235.217 C 125.796 234.929,126.805 234.346,129.600 232.907 C 131.056 232.157,132.686 231.172,134.408 229.999 C 134.962 229.621,135.862 229.176,136.408 229.009 C 136.953 228.842,137.703 228.440,138.072 228.116 C 138.781 227.494,140.563 226.467,142.651 225.476 C 143.339 225.149,144.025 224.683,144.175 224.441 C 144.537 223.854,146.118 223.878,146.720 224.480 C 147.403 225.163,147.380 234.801,146.693 235.740 C 146.183 236.438,145.375 236.966,142.800 238.284 C 142.030 238.678,141.278 239.169,141.129 239.376 C 140.847 239.768,139.187 240.707,136.800 241.824 C 136.030 242.185,135.130 242.713,134.800 242.997 C 134.470 243.282,132.926 244.209,131.368 245.057 C 125.668 248.162,122.993 249.762,122.698 250.244 C 122.531 250.516,121.824 250.863,121.126 251.016 C 120.428 251.170,118.979 251.912,117.907 252.666 C 116.834 253.420,115.561 254.221,115.078 254.446 C 114.595 254.671,113.375 255.338,112.367 255.928 C 111.358 256.518,109.759 257.450,108.812 258.000 C 107.866 258.550,106.711 259.222,106.246 259.494 C 104.911 260.274,103.037 260.085,101.456 259.012 C 100.656 258.469,98.876 257.464,97.501 256.779 C 94.736 255.401,92.926 254.367,90.768 252.935 C 89.980 252.413,88.424 251.493,87.310 250.892 C 86.196 250.292,83.893 248.990,82.192 248.000 C 80.490 247.010,77.996 245.603,76.649 244.874 C 75.302 244.145,73.570 243.125,72.800 242.607 C 71.110 241.470,67.476 239.413,65.727 238.602 C 65.027 238.278,64.333 237.814,64.183 237.573 C 64.034 237.331,63.167 236.791,62.256 236.372 C 61.345 235.953,60.330 235.435,60.000 235.222 C 59.670 235.008,57.690 233.828,55.600 232.600 C 49.797 229.189,50.419 233.128,50.409 199.726 C 50.404 182.507,50.553 170.450,50.779 169.856 C 51.181 168.799,54.391 166.739,61.683 162.862 C 63.068 162.126,64.470 161.289,64.800 161.002 C 65.130 160.715,66.030 160.190,66.800 159.835 C 67.570 159.481,69.640 158.296,71.400 157.203 C 73.160 156.110,75.320 154.844,76.200 154.391 C 77.080 153.937,78.461 153.169,79.268 152.683 C 83.509 150.132,88.766 147.200,89.098 147.200 C 89.306 147.200,89.784 146.860,90.160 146.444 C 90.536 146.028,91.959 145.112,93.322 144.408 C 94.685 143.705,96.520 142.702,97.400 142.180 C 98.280 141.659,99.540 140.929,100.200 140.559 C 100.860 140.189,101.829 139.552,102.354 139.143 C 103.728 138.073,104.056 138.156,108.479 140.700 M117.011 167.696 C 117.665 168.031,118.969 168.433,119.908 168.589 C 120.847 168.745,121.869 169.127,122.179 169.436 C 122.489 169.746,123.006 170.000,123.327 170.000 C 124.917 170.000,125.706 171.376,125.906 174.497 C 126.301 180.657,125.655 181.338,120.959 179.711 C 119.441 179.185,117.480 178.562,116.600 178.325 C 115.720 178.089,114.010 177.604,112.800 177.247 C 109.856 176.381,103.394 176.398,102.000 177.276 C 101.450 177.622,100.222 178.021,99.271 178.162 C 98.320 178.303,97.060 178.746,96.471 179.147 C 93.449 181.201,92.114 182.000,91.705 182.000 C 91.457 182.000,91.140 182.360,91.000 182.800 C 90.860 183.240,90.611 183.600,90.445 183.600 C 89.896 183.600,86.044 189.083,85.772 190.251 C 85.625 190.883,85.231 191.837,84.896 192.371 C 83.935 193.906,83.727 201.696,84.586 204.000 C 84.956 204.990,85.454 206.504,85.694 207.365 C 86.217 209.241,86.383 209.455,90.464 213.536 C 94.293 217.366,95.039 218.000,95.715 218.000 C 95.999 218.000,96.944 218.368,97.815 218.818 C 101.907 220.929,113.297 221.156,117.216 219.205 C 117.995 218.818,119.248 218.365,120.000 218.200 C 120.753 218.035,121.880 217.521,122.505 217.059 C 124.717 215.424,125.774 216.646,125.917 221.000 C 126.065 225.528,125.447 226.894,122.808 227.878 C 121.814 228.249,120.640 228.769,120.200 229.033 C 119.760 229.297,118.500 229.636,117.400 229.786 C 116.300 229.936,114.629 230.315,113.686 230.629 C 111.272 231.433,102.445 231.421,101.376 230.613 C 100.949 230.290,100.060 230.019,99.400 230.010 C 97.819 229.991,95.200 229.252,95.200 228.826 C 95.200 228.641,94.525 228.364,93.700 228.211 C 89.378 227.409,80.560 219.686,77.929 214.400 C 77.656 213.850,77.110 212.971,76.716 212.446 C 76.322 211.921,76.000 211.199,76.000 210.840 C 76.000 210.482,75.595 209.471,75.100 208.594 C 73.744 206.192,73.722 191.596,75.071 188.786 C 75.550 187.788,76.062 186.491,76.210 185.903 C 76.358 185.314,76.731 184.623,77.039 184.367 C 77.348 184.111,77.600 183.683,77.600 183.415 C 77.600 182.571,79.688 179.987,83.000 176.733 C 87.375 172.434,87.252 172.539,88.595 171.936 C 89.251 171.641,90.106 171.085,90.495 170.700 C 90.883 170.315,91.501 170.000,91.869 170.000 C 92.236 170.000,92.821 169.751,93.169 169.447 C 93.767 168.922,96.933 167.862,100.000 167.158 C 102.491 166.587,115.658 167.004,117.011 167.696 M326.752 168.386 C 328.595 168.861,330.485 169.489,330.952 169.783 C 331.418 170.076,332.244 170.450,332.786 170.613 C 335.846 171.531,346.800 182.097,346.800 184.130 C 346.800 184.395,347.149 185.262,347.575 186.058 C 353.662 197.415,348.971 216.310,338.297 223.427 C 337.364 224.049,336.418 224.768,336.197 225.024 C 335.677 225.623,331.230 228.000,330.628 228.000 C 330.376 228.000,329.463 228.360,328.600 228.800 C 327.737 229.240,326.540 229.600,325.940 229.600 C 325.340 229.600,323.630 229.883,322.139 230.229 C 315.059 231.871,304.743 229.265,297.290 223.953 C 294.924 222.266,291.277 217.996,288.314 213.440 C 287.555 212.274,286.349 209.009,285.978 207.113 C 285.750 205.951,285.391 204.232,285.182 203.294 C 284.695 201.120,284.688 195.530,285.170 193.646 C 285.373 192.851,285.739 191.216,285.983 190.013 C 286.608 186.927,288.172 183.876,290.904 180.411 C 292.200 178.767,293.382 177.230,293.530 176.997 C 293.679 176.764,294.790 175.865,296.000 174.999 C 297.210 174.134,298.290 173.329,298.400 173.209 C 300.259 171.193,306.486 168.707,312.800 167.461 C 315.174 166.992,323.477 167.543,326.752 168.386 M167.526 169.399 C 168.179 169.948,168.834 170.893,168.983 171.499 C 169.253 172.597,169.937 174.137,172.849 180.200 C 173.694 181.960,174.504 183.940,174.649 184.600 C 174.794 185.260,175.222 186.098,175.599 186.462 C 175.977 186.827,176.400 187.838,176.539 188.710 C 176.679 189.583,177.064 190.522,177.396 190.797 C 177.728 191.073,178.000 191.504,178.000 191.755 C 178.000 192.006,178.334 192.839,178.741 193.606 C 179.149 194.373,179.716 195.715,180.002 196.589 C 180.287 197.463,180.757 198.414,181.045 198.702 C 181.333 198.990,181.694 199.895,181.847 200.713 C 182.000 201.531,182.354 202.380,182.634 202.600 C 182.913 202.820,183.339 203.720,183.579 204.600 C 184.042 206.296,185.995 209.045,185.998 208.006 C 186.000 207.465,186.925 205.353,188.802 201.600 C 189.187 200.830,189.718 199.525,189.982 198.700 C 190.246 197.875,190.626 197.200,190.826 197.200 C 191.027 197.200,191.305 196.481,191.446 195.603 C 191.586 194.724,192.039 193.617,192.451 193.142 C 192.863 192.666,193.200 192.098,193.200 191.877 C 193.200 191.413,194.851 187.674,196.006 185.521 C 196.443 184.707,196.800 183.707,196.800 183.298 C 196.800 182.890,197.250 181.945,197.800 181.200 C 198.350 180.455,198.800 179.677,198.800 179.472 C 198.800 178.964,200.842 174.334,201.372 173.641 C 201.608 173.333,201.980 172.343,202.200 171.441 C 202.720 169.307,204.403 168.401,207.850 168.401 C 212.812 168.399,213.770 168.991,212.644 171.364 C 212.290 172.110,212.000 172.937,212.000 173.201 C 212.000 173.466,211.526 174.609,210.946 175.741 C 208.657 180.215,208.400 180.778,208.400 181.325 C 208.400 181.637,208.040 182.350,207.600 182.909 C 207.160 183.469,206.800 184.165,206.800 184.457 C 206.800 184.749,206.332 185.981,205.759 187.194 C 204.690 189.461,204.063 190.840,202.215 195.000 C 201.629 196.320,200.800 198.066,200.374 198.879 C 199.948 199.693,199.600 200.614,199.600 200.925 C 199.600 201.237,199.263 201.921,198.852 202.446 C 198.441 202.971,197.967 204.030,197.800 204.800 C 197.633 205.570,197.159 206.629,196.748 207.154 C 196.337 207.679,195.998 208.309,195.996 208.554 C 195.994 208.799,195.550 209.900,195.009 211.000 C 194.468 212.100,194.019 213.203,194.013 213.451 C 194.006 213.699,193.750 214.110,193.444 214.363 C 193.139 214.617,192.693 215.604,192.453 216.556 C 192.213 217.509,191.743 218.515,191.408 218.793 C 191.074 219.071,190.800 219.579,190.800 219.923 C 190.800 220.266,190.420 221.369,189.956 222.374 C 189.492 223.378,188.662 225.190,188.112 226.400 C 187.561 227.610,186.977 228.870,186.815 229.200 C 185.930 230.991,183.517 229.464,182.755 226.631 C 182.517 225.750,181.980 224.593,181.561 224.060 C 181.143 223.528,180.800 222.793,180.800 222.427 C 180.800 222.061,180.103 220.330,179.250 218.581 C 178.398 216.831,177.567 214.950,177.405 214.400 C 177.242 213.850,176.789 212.860,176.398 212.200 C 176.006 211.540,175.563 210.415,175.411 209.700 C 175.260 208.985,174.985 208.400,174.799 208.400 C 174.614 208.400,174.245 207.725,173.979 206.900 C 173.714 206.075,173.267 204.950,172.985 204.400 C 171.787 202.057,170.434 198.922,170.187 197.916 C 170.041 197.320,169.669 196.623,169.361 196.367 C 169.052 196.111,168.798 195.699,168.796 195.451 C 168.794 195.203,168.350 194.100,167.809 193.000 C 167.268 191.900,166.819 190.838,166.813 190.640 C 166.806 190.442,166.370 189.362,165.844 188.240 C 163.750 183.771,163.200 182.495,163.200 182.110 C 163.200 181.889,162.863 181.279,162.452 180.754 C 162.041 180.229,161.567 179.170,161.400 178.400 C 161.233 177.630,160.759 176.571,160.348 176.046 C 159.937 175.521,159.600 174.733,159.600 174.293 C 159.600 173.854,159.227 172.891,158.771 172.154 C 157.026 169.330,158.022 168.508,163.269 168.440 C 165.991 168.405,166.473 168.513,167.526 169.399 M266.171 169.429 C 266.728 169.986,266.805 172.868,266.840 194.729 C 266.862 208.298,266.998 219.819,267.142 220.331 L 267.404 221.262 275.602 221.229 C 285.919 221.188,285.756 221.125,285.919 225.206 C 286.174 231.559,287.057 231.200,271.186 231.200 C 258.587 231.200,258.011 231.167,257.614 230.426 C 257.339 229.913,257.200 219.675,257.200 200.000 C 257.200 180.325,257.339 170.087,257.614 169.574 C 258.175 168.526,265.151 168.408,266.171 169.429 M228.557 171.989 C 229.083 173.036,229.634 174.444,229.782 175.118 C 229.930 175.793,230.310 176.559,230.626 176.821 C 230.942 177.083,231.200 177.577,231.200 177.917 C 231.200 178.527,232.882 182.376,234.418 185.279 C 234.848 186.093,235.200 187.106,235.200 187.530 C 235.200 187.955,235.470 188.526,235.800 188.800 C 236.130 189.074,236.401 189.501,236.402 189.749 C 236.402 189.997,236.942 191.280,237.600 192.600 C 238.258 193.920,238.798 195.242,238.798 195.537 C 238.799 195.832,239.160 196.531,239.600 197.091 C 240.040 197.650,240.400 198.434,240.400 198.833 C 240.400 199.231,240.850 200.404,241.400 201.438 C 241.950 202.473,242.400 203.540,242.400 203.811 C 242.400 204.081,242.650 204.510,242.956 204.763 C 243.261 205.017,243.707 206.004,243.947 206.956 C 244.187 207.909,244.638 208.900,244.950 209.158 C 245.261 209.417,245.640 210.288,245.791 211.093 C 245.942 211.898,246.411 212.996,246.833 213.533 C 247.255 214.069,247.600 214.749,247.600 215.043 C 247.600 215.337,248.410 217.288,249.400 219.379 C 250.390 221.469,251.200 223.355,251.200 223.569 C 251.200 223.783,251.650 224.804,252.200 225.838 C 254.394 229.965,253.563 231.200,248.590 231.200 C 244.195 231.200,242.474 229.691,241.426 224.917 C 241.275 224.229,240.802 223.263,240.375 222.772 C 239.949 222.280,239.600 221.479,239.600 220.993 C 239.600 220.506,239.265 219.679,238.855 219.154 C 238.445 218.629,237.982 217.750,237.825 217.200 C 237.668 216.650,237.167 215.390,236.711 214.400 C 235.669 212.134,234.694 209.957,233.575 207.400 C 231.695 203.102,230.331 200.137,229.582 198.721 C 229.152 197.907,228.800 196.894,228.800 196.470 C 228.800 196.045,228.559 195.498,228.265 195.254 C 227.970 195.009,227.512 194.085,227.247 193.199 L 226.765 191.589 225.802 192.295 C 225.273 192.683,224.724 193.540,224.581 194.200 C 224.439 194.860,223.980 195.995,223.561 196.723 C 223.143 197.450,222.800 198.246,222.800 198.491 C 222.800 199.057,220.441 204.002,219.790 204.800 C 219.521 205.130,219.179 206.084,219.029 206.921 C 218.879 207.758,218.516 208.534,218.223 208.647 C 217.930 208.759,217.584 209.382,217.454 210.032 C 217.324 210.681,216.786 212.155,216.259 213.306 C 215.733 214.458,215.194 215.715,215.063 216.100 C 214.932 216.485,214.655 216.800,214.448 216.800 C 214.240 216.800,213.948 217.524,213.799 218.408 C 213.649 219.292,213.301 220.242,213.024 220.519 C 212.747 220.796,212.291 221.737,212.010 222.611 C 211.729 223.485,211.270 224.470,210.989 224.800 C 210.709 225.130,210.299 226.064,210.079 226.876 C 209.858 227.687,209.189 228.992,208.592 229.776 L 207.505 231.200 203.785 231.200 C 198.472 231.200,197.439 230.037,199.601 226.490 C 200.041 225.770,200.400 224.939,200.400 224.644 C 200.400 224.349,200.749 223.664,201.175 223.122 C 201.602 222.580,202.078 221.611,202.234 220.968 C 202.389 220.326,202.844 219.170,203.243 218.400 C 204.375 216.219,206.000 212.490,206.000 212.074 C 206.000 211.867,206.258 211.483,206.574 211.221 C 206.890 210.959,207.273 210.172,207.424 209.472 C 207.576 208.773,208.031 207.570,208.435 206.800 C 209.540 204.694,211.200 200.899,211.200 200.479 C 211.200 200.275,211.537 199.679,211.948 199.154 C 212.359 198.629,212.821 197.627,212.974 196.928 C 213.126 196.228,213.510 195.441,213.826 195.179 C 214.142 194.917,214.400 194.391,214.400 194.011 C 214.400 193.630,214.821 192.526,215.337 191.558 C 215.852 190.589,216.496 189.122,216.768 188.298 C 217.040 187.474,217.414 186.800,217.599 186.800 C 217.785 186.800,218.063 186.215,218.218 185.500 C 218.373 184.785,218.831 183.570,219.235 182.800 C 220.346 180.683,222.000 176.898,222.000 176.474 C 222.000 176.267,222.258 175.883,222.574 175.621 C 222.890 175.359,223.272 174.572,223.422 173.872 C 224.386 169.396,226.808 168.508,228.557 171.989 M313.000 176.420 C 308.026 177.218,301.217 181.288,299.011 184.783 C 298.473 185.635,297.857 186.441,297.643 186.573 C 296.255 187.431,293.600 195.460,293.600 198.800 C 293.600 205.789,300.980 217.536,306.002 218.540 C 306.742 218.688,307.633 219.068,307.982 219.383 C 309.190 220.477,315.892 221.695,319.400 221.458 C 335.996 220.336,346.495 201.748,338.297 188.000 C 337.386 186.472,333.993 182.284,333.486 182.062 C 333.312 181.986,332.682 181.513,332.085 181.011 C 327.532 177.181,319.822 175.327,313.000 176.420 M229.900 217.711 C 231.203 218.960,231.768 222.198,230.894 223.406 C 227.793 227.695,221.870 226.468,221.301 221.419 C 220.763 216.645,226.298 214.258,229.900 217.711 " stroke="none" fill="#fbfbfb" fill-rule="evenodd"></path><path id="path1" d="M105.399 141.102 C 104.609 141.689,105.159 150.400,105.986 150.400 C 106.380 150.400,106.949 150.698,107.251 151.062 C 107.553 151.426,108.393 151.972,109.117 152.275 C 109.842 152.577,110.536 153.090,110.660 153.413 C 110.784 153.736,111.164 154.000,111.504 154.000 C 112.493 154.000,117.209 156.358,117.444 156.971 C 117.562 157.277,118.095 157.637,118.629 157.772 C 119.163 157.906,119.600 158.266,119.600 158.572 C 119.600 158.909,120.220 159.234,121.164 159.394 C 122.025 159.539,123.033 159.995,123.406 160.406 C 123.778 160.818,124.589 161.266,125.208 161.402 C 125.827 161.538,126.433 161.908,126.554 162.224 C 126.676 162.541,127.041 162.800,127.367 162.800 C 127.692 162.800,128.444 163.250,129.038 163.800 C 129.631 164.350,130.470 164.800,130.901 164.800 C 131.332 164.800,132.219 165.250,132.873 165.800 C 133.527 166.350,134.399 166.800,134.811 166.800 C 135.223 166.800,135.704 167.046,135.880 167.346 C 136.056 167.646,136.785 168.191,137.500 168.556 C 138.215 168.922,138.800 169.396,138.800 169.610 C 138.800 169.825,139.226 170.000,139.746 170.000 C 140.266 170.000,141.121 170.330,141.646 170.734 C 142.171 171.137,143.185 171.753,143.900 172.103 L 145.200 172.739 145.200 168.588 C 145.200 164.302,144.414 162.400,142.644 162.400 C 142.358 162.400,141.807 162.050,141.421 161.623 C 141.034 161.195,140.208 160.734,139.586 160.597 C 138.964 160.460,138.232 160.080,137.959 159.751 C 137.687 159.423,136.864 158.903,136.132 158.597 C 135.399 158.291,134.800 157.852,134.800 157.620 C 134.800 157.389,134.565 157.200,134.278 157.200 C 133.990 157.200,133.145 156.750,132.400 156.200 C 131.655 155.650,130.630 155.200,130.122 155.200 C 129.615 155.200,128.859 154.859,128.442 154.442 C 127.669 153.669,126.434 152.921,124.083 151.802 C 123.358 151.457,122.672 150.932,122.558 150.635 C 122.444 150.337,121.686 149.988,120.874 149.858 C 120.061 149.728,119.084 149.257,118.702 148.811 C 118.320 148.365,117.764 148.000,117.466 148.000 C 117.168 148.000,116.598 147.640,116.200 147.200 C 115.802 146.760,115.260 146.400,114.996 146.400 C 114.733 146.400,114.031 145.950,113.438 145.400 C 112.844 144.850,112.036 144.400,111.641 144.400 C 111.247 144.400,110.617 144.061,110.242 143.646 C 109.866 143.231,109.013 142.783,108.346 142.649 C 107.679 142.516,106.834 142.046,106.467 141.606 C 106.100 141.165,105.620 140.939,105.399 141.102 M102.739 168.194 C 102.633 168.301,101.118 168.586,99.374 168.829 C 97.630 169.072,95.447 169.614,94.523 170.035 C 93.600 170.456,92.577 170.800,92.251 170.800 C 91.924 170.800,91.371 171.086,91.021 171.436 C 90.671 171.786,89.444 172.714,88.293 173.499 C 82.915 177.165,78.508 182.812,76.352 188.800 C 75.995 189.790,75.484 191.180,75.216 191.889 C 74.425 193.982,74.800 205.517,75.700 206.789 C 76.085 207.333,76.400 208.038,76.400 208.355 C 76.400 208.867,78.064 212.420,79.887 215.800 C 80.633 217.184,87.467 224.000,88.108 224.000 C 88.344 224.000,88.821 224.244,89.169 224.542 C 89.928 225.194,92.984 226.803,96.000 228.139 C 98.974 229.456,108.353 230.361,111.820 229.665 C 113.093 229.409,114.778 229.199,115.567 229.198 C 116.355 229.196,117.540 228.908,118.200 228.557 C 118.860 228.206,120.225 227.669,121.234 227.363 C 124.168 226.475,124.505 225.856,124.341 221.656 C 124.182 217.602,124.045 217.301,122.735 218.120 C 122.221 218.442,121.260 218.830,120.600 218.984 C 119.940 219.137,119.130 219.489,118.800 219.766 C 115.593 222.457,103.978 222.684,97.800 220.176 C 86.138 215.443,79.272 200.472,84.387 190.929 C 84.834 190.094,85.200 189.126,85.200 188.776 C 85.200 187.647,89.548 182.430,91.846 180.800 C 97.590 176.727,99.978 176.000,107.606 176.000 C 113.721 176.000,117.387 176.728,121.743 178.806 C 124.182 179.970,124.400 179.675,124.400 175.204 L 124.400 171.294 121.033 170.222 C 115.940 168.600,103.691 167.242,102.739 168.194 M159.954 170.500 C 159.929 170.995,159.941 171.760,159.982 172.200 C 160.044 172.871,162.722 178.778,164.606 182.400 C 164.892 182.950,165.254 184.077,165.409 184.904 C 165.564 185.732,165.844 186.504,166.032 186.620 C 166.657 187.006,170.800 196.195,170.800 197.194 C 170.800 197.578,171.135 198.321,171.545 198.846 C 171.955 199.371,172.427 200.250,172.594 200.800 C 172.761 201.350,173.053 201.995,173.242 202.233 C 173.431 202.471,174.227 204.271,175.011 206.233 C 175.794 208.195,177.147 211.217,178.018 212.948 C 178.888 214.679,179.606 216.299,179.613 216.548 C 179.619 216.797,180.068 217.900,180.609 219.000 C 181.150 220.100,181.594 221.275,181.596 221.611 C 181.598 221.947,181.893 222.640,182.250 223.150 C 182.608 223.661,183.463 225.186,184.150 226.539 C 185.616 229.425,186.007 229.562,186.603 227.400 C 187.138 225.455,187.894 223.702,190.219 219.000 C 191.199 217.020,192.000 215.166,192.000 214.879 C 192.000 214.593,192.337 213.693,192.749 212.879 C 194.366 209.683,197.165 203.670,198.185 201.200 C 198.775 199.770,200.055 196.980,201.029 195.000 C 202.003 193.020,202.800 191.183,202.800 190.917 C 202.800 190.652,203.518 188.942,204.397 187.117 C 205.275 185.293,205.995 183.610,205.997 183.378 C 205.998 183.145,206.450 182.345,207.000 181.600 C 207.550 180.855,208.000 179.992,208.000 179.683 C 208.000 179.112,208.405 178.127,210.430 173.767 C 212.102 170.167,211.814 169.600,208.315 169.600 C 205.103 169.600,203.289 170.411,202.956 171.996 C 202.840 172.548,202.416 173.720,202.014 174.600 C 201.612 175.480,201.152 176.638,200.991 177.173 C 200.687 178.190,199.412 180.689,198.325 182.400 C 197.976 182.950,197.575 184.057,197.434 184.860 C 197.294 185.663,196.914 186.540,196.589 186.809 C 196.265 187.078,196.000 187.594,196.000 187.957 C 196.000 188.319,195.271 190.052,194.380 191.808 C 193.488 193.563,192.122 196.620,191.343 198.600 C 190.563 200.580,189.673 202.484,189.363 202.831 C 189.053 203.179,188.800 203.659,188.800 203.900 C 188.800 204.576,185.963 210.000,185.609 210.000 C 185.047 210.000,183.334 207.439,182.800 205.800 C 182.513 204.920,182.057 203.840,181.787 203.400 C 181.516 202.960,181.170 202.060,181.016 201.400 C 180.863 200.740,180.511 199.930,180.235 199.600 C 179.958 199.270,179.123 197.560,178.380 195.800 C 177.637 194.040,176.797 192.245,176.514 191.811 C 176.231 191.377,175.997 190.657,175.994 190.211 C 175.991 189.765,175.732 188.950,175.420 188.400 C 174.825 187.354,173.372 184.394,171.787 181.000 C 171.274 179.900,170.727 178.460,170.573 177.800 C 170.419 177.140,170.049 176.318,169.751 175.974 C 169.454 175.630,168.997 174.730,168.737 173.974 C 168.477 173.218,167.821 171.925,167.279 171.100 L 166.294 169.600 163.147 169.600 C 160.164 169.600,159.998 169.647,159.954 170.500 M259.600 170.295 C 259.050 170.397,258.468 170.688,258.306 170.940 C 257.860 171.638,257.943 228.491,258.391 229.200 C 258.712 229.707,260.662 229.820,271.024 229.927 C 285.617 230.077,285.008 230.254,284.702 225.955 C 284.433 222.157,285.067 222.400,275.425 222.400 C 267.983 222.400,266.828 222.316,266.349 221.739 C 265.899 221.197,265.781 216.590,265.697 196.239 C 265.577 167.078,266.051 169.096,259.600 170.295 M225.489 171.967 C 224.907 172.658,224.316 173.842,224.174 174.598 C 224.032 175.353,223.665 176.180,223.358 176.435 C 223.051 176.690,222.800 177.209,222.800 177.589 C 222.800 177.970,222.373 179.085,221.850 180.067 C 221.328 181.050,220.763 182.291,220.595 182.827 C 220.427 183.362,219.955 184.229,219.545 184.754 C 219.135 185.279,218.800 185.963,218.800 186.276 C 218.800 186.917,217.913 188.969,215.375 194.200 C 214.414 196.180,213.093 199.150,212.439 200.800 C 211.785 202.450,210.518 205.237,209.625 206.992 C 208.731 208.748,208.000 210.431,208.000 210.731 C 208.000 211.031,207.748 211.754,207.440 212.338 C 205.920 215.217,202.799 221.848,202.797 222.200 C 202.796 222.420,202.511 223.140,202.163 223.800 C 201.816 224.460,201.202 225.861,200.799 226.913 L 200.067 228.826 200.993 229.432 C 201.648 229.861,202.717 230.004,204.655 229.919 L 207.391 229.800 208.252 228.154 C 208.725 227.249,209.244 226.079,209.407 225.554 C 209.679 224.674,211.972 219.788,212.764 218.400 C 212.952 218.070,213.517 216.720,214.018 215.400 C 214.520 214.080,215.697 211.380,216.634 209.400 C 217.571 207.420,219.244 203.730,220.352 201.200 C 221.459 198.670,222.733 195.887,223.183 195.015 C 223.632 194.144,224.000 193.143,224.000 192.790 C 224.000 192.096,225.989 190.000,226.648 190.000 C 227.087 190.000,228.886 193.700,229.599 196.068 C 229.842 196.875,230.302 197.752,230.620 198.017 C 230.939 198.282,231.200 198.755,231.200 199.070 C 231.200 199.384,231.561 200.307,232.003 201.121 C 233.158 203.248,234.800 207.067,234.800 207.627 C 234.800 207.890,235.139 208.667,235.554 209.353 C 235.969 210.039,236.441 211.050,236.602 211.600 C 236.763 212.150,237.125 212.870,237.406 213.200 C 237.687 213.530,238.217 214.696,238.584 215.790 C 238.951 216.885,239.395 217.965,239.571 218.190 C 239.746 218.416,240.019 219.140,240.176 219.800 C 240.333 220.460,240.685 221.270,240.957 221.600 C 241.577 222.353,244.000 227.705,244.000 228.322 C 244.000 230.034,251.232 230.624,251.870 228.963 C 252.076 228.424,250.664 224.617,249.218 221.815 C 248.768 220.944,248.400 220.021,248.400 219.764 C 248.400 219.508,248.148 219.089,247.839 218.833 C 247.531 218.577,247.158 217.886,247.010 217.297 C 246.862 216.709,246.395 215.466,245.971 214.536 C 245.547 213.605,245.200 212.669,245.200 212.455 C 245.200 212.241,244.595 210.926,243.856 209.533 C 242.360 206.714,240.563 202.537,239.926 200.400 C 239.697 199.630,239.204 198.550,238.832 198.000 C 238.029 196.814,235.045 190.026,234.407 187.932 C 234.160 187.125,233.698 186.248,233.380 185.983 C 233.061 185.718,232.800 185.230,232.800 184.898 C 232.800 184.566,232.461 183.733,232.046 183.047 C 231.632 182.361,230.698 180.180,229.970 178.200 C 229.242 176.220,228.411 174.316,228.123 173.969 C 227.836 173.621,227.600 173.071,227.600 172.745 C 227.600 171.037,226.586 170.663,225.489 171.967 M52.400 199.569 L 52.400 227.939 53.558 227.361 C 54.195 227.043,54.927 226.529,55.186 226.217 C 55.444 225.906,56.228 225.530,56.928 225.383 C 57.627 225.235,58.605 224.742,59.100 224.287 L 60.000 223.461 60.000 199.338 L 60.000 175.216 58.500 174.404 C 56.704 173.431,55.761 172.871,54.316 171.916 C 53.720 171.522,53.045 171.200,52.816 171.200 C 52.532 171.200,52.400 180.187,52.400 199.569 M144.400 226.318 C 144.070 226.420,143.497 226.768,143.128 227.089 C 142.432 227.695,140.539 228.800,138.800 229.616 C 138.250 229.874,137.530 230.250,137.200 230.451 C 136.870 230.652,136.025 231.081,135.322 231.404 C 134.619 231.728,133.899 232.237,133.722 232.536 C 133.350 233.164,132.130 233.859,128.400 235.567 C 127.061 236.180,125.048 237.342,124.800 237.644 C 124.690 237.778,123.970 238.211,123.200 238.606 C 122.430 239.000,121.620 239.545,121.400 239.817 C 121.180 240.089,120.327 240.429,119.505 240.573 C 118.623 240.727,117.838 241.156,117.591 241.617 C 117.360 242.048,116.936 242.400,116.648 242.400 C 116.360 242.400,115.798 242.760,115.400 243.200 C 115.002 243.640,114.342 244.000,113.934 244.000 C 113.526 244.000,112.880 244.365,112.498 244.811 C 112.116 245.257,111.128 245.730,110.302 245.862 C 109.476 245.994,108.790 246.304,108.778 246.551 C 108.766 246.798,107.928 247.544,106.916 248.210 L 105.076 249.419 105.038 253.310 C 105.015 255.635,105.161 257.219,105.400 257.246 C 106.451 257.367,107.472 257.065,108.200 256.417 C 108.640 256.025,109.500 255.587,110.110 255.442 C 110.721 255.298,111.531 254.910,111.910 254.580 C 114.411 252.405,114.990 252.000,115.596 252.000 C 115.970 252.000,116.599 251.644,116.993 251.208 C 117.387 250.772,118.340 250.297,119.110 250.153 C 119.880 250.009,120.827 249.600,121.214 249.245 C 121.602 248.890,122.368 248.194,122.918 247.698 C 123.467 247.203,124.466 246.687,125.138 246.552 C 125.809 246.418,126.666 245.969,127.042 245.554 C 127.417 245.139,128.028 244.800,128.400 244.800 C 128.772 244.800,129.387 244.456,129.767 244.036 C 130.148 243.616,130.933 243.153,131.512 243.008 C 132.091 242.862,132.807 242.396,133.105 241.972 C 133.402 241.547,133.881 241.200,134.169 241.200 C 134.457 241.200,135.121 240.867,135.646 240.461 C 136.171 240.055,137.132 239.592,137.782 239.433 C 138.432 239.274,139.207 238.796,139.505 238.372 C 139.802 237.947,140.401 237.600,140.835 237.600 C 141.270 237.600,141.725 237.339,141.848 237.019 C 141.970 236.700,142.685 236.236,143.436 235.988 C 145.118 235.433,145.267 234.898,145.117 229.966 C 145.020 226.775,144.899 226.163,144.400 226.318 " stroke="none" fill="#2c6175" fill-rule="evenodd"></path><path id="path2" d="M310.800 168.213 C 304.168 169.634,301.846 170.714,296.863 174.693 C 295.688 175.632,294.587 176.400,294.416 176.400 C 294.246 176.400,293.655 177.075,293.104 177.900 C 292.553 178.725,291.674 179.866,291.151 180.436 C 284.594 187.580,283.156 204.227,288.334 213.054 C 295.901 225.953,308.610 232.068,323.180 229.821 C 325.501 229.463,327.940 228.925,328.600 228.624 C 329.260 228.324,331.027 227.524,332.526 226.848 C 337.971 224.391,345.765 216.613,347.004 212.400 C 347.166 211.850,347.440 211.220,347.614 211.000 C 350.602 207.224,350.484 190.682,347.439 186.334 C 347.087 185.832,346.800 185.114,346.800 184.737 C 346.800 184.138,345.443 182.255,341.778 177.765 C 341.224 177.087,340.051 176.007,339.172 175.365 C 338.294 174.724,336.596 173.456,335.399 172.546 C 334.202 171.637,332.723 170.768,332.111 170.615 C 331.500 170.462,330.730 170.108,330.400 169.828 C 328.042 167.823,316.902 166.906,310.800 168.213 M324.258 176.846 C 340.622 181.892,346.937 201.460,335.924 212.996 C 335.086 213.874,334.400 214.723,334.400 214.883 C 334.400 215.832,328.102 219.505,323.800 221.065 C 319.921 222.472,309.941 221.477,307.642 219.454 C 307.289 219.143,306.395 218.760,305.655 218.603 C 303.823 218.213,297.687 212.134,296.236 209.272 C 292.744 202.379,292.797 193.634,296.366 188.002 C 300.177 181.988,305.959 177.594,311.800 176.274 C 314.331 175.701,321.634 176.037,324.258 176.846 " stroke="none" fill="#dd6b4d" fill-rule="evenodd"></path><path id="path3" d="M102.354 139.143 C 101.829 139.552,100.860 140.189,100.200 140.559 C 99.540 140.929,98.280 141.659,97.400 142.180 C 96.520 142.702,94.685 143.705,93.322 144.408 C 91.959 145.112,90.536 146.028,90.160 146.444 C 89.784 146.860,89.306 147.200,89.098 147.200 C 88.766 147.200,83.509 150.132,79.268 152.683 C 78.461 153.169,77.080 153.937,76.200 154.391 C 75.320 154.844,73.160 156.110,71.400 157.203 C 69.640 158.296,67.570 159.481,66.800 159.835 C 66.030 160.190,65.130 160.715,64.800 161.002 C 64.470 161.289,63.068 162.126,61.683 162.862 C 54.391 166.739,51.181 168.799,50.779 169.856 C 50.553 170.450,50.404 182.507,50.409 199.726 C 50.419 233.128,49.797 229.189,55.600 232.600 C 57.690 233.828,59.670 235.008,60.000 235.222 C 60.330 235.435,61.345 235.953,62.256 236.372 C 63.167 236.791,64.034 237.331,64.183 237.573 C 64.333 237.814,65.027 238.278,65.727 238.602 C 67.476 239.413,71.110 241.470,72.800 242.607 C 73.570 243.125,75.302 244.145,76.649 244.874 C 77.996 245.603,80.490 247.010,82.192 248.000 C 83.893 248.990,86.196 250.292,87.310 250.892 C 88.424 251.493,89.980 252.413,90.768 252.935 C 92.926 254.367,94.736 255.401,97.501 256.779 C 98.876 257.464,100.656 258.469,101.456 259.012 C 103.037 260.085,104.911 260.274,106.246 259.494 C 106.711 259.222,107.866 258.550,108.812 258.000 C 109.759 257.450,111.358 256.518,112.367 255.928 C 113.375 255.338,114.595 254.671,115.078 254.446 C 115.561 254.221,116.834 253.420,117.907 252.666 C 118.979 251.912,120.428 251.170,121.126 251.016 C 121.824 250.863,122.531 250.516,122.698 250.244 C 122.993 249.762,125.668 248.162,131.368 245.057 C 132.926 244.209,134.470 243.282,134.800 242.997 C 135.130 242.713,136.030 242.185,136.800 241.824 C 139.187 240.707,140.847 239.768,141.129 239.376 C 141.278 239.169,142.030 238.678,142.800 238.284 C 145.375 236.966,146.183 236.438,146.693 235.740 C 147.380 234.801,147.403 225.163,146.720 224.480 C 146.118 223.878,144.537 223.854,144.175 224.441 C 144.025 224.683,143.339 225.149,142.651 225.476 C 140.563 226.467,138.781 227.494,138.072 228.116 C 137.703 228.440,136.953 228.842,136.408 229.009 C 135.862 229.176,134.962 229.621,134.408 229.999 C 132.686 231.172,131.056 232.157,129.600 232.907 C 126.805 234.346,125.796 234.929,125.600 235.217 C 125.490 235.378,124.770 235.801,124.000 236.156 C 123.230 236.512,121.790 237.335,120.800 237.986 C 119.810 238.637,118.460 239.443,117.800 239.777 C 117.140 240.111,116.330 240.551,116.000 240.756 C 114.727 241.544,109.351 244.623,108.400 245.108 C 107.850 245.388,106.680 246.061,105.800 246.602 C 103.352 248.109,102.950 247.962,92.463 241.731 C 91.658 241.253,89.783 240.222,88.296 239.440 C 86.809 238.658,85.054 237.654,84.396 237.209 C 83.738 236.764,82.684 236.053,82.054 235.628 C 81.424 235.203,80.299 234.577,79.554 234.236 C 78.061 233.552,77.655 233.312,74.288 231.111 C 73.016 230.280,71.396 229.332,70.688 229.003 C 68.091 227.798,64.030 225.374,63.029 224.430 L 62.000 223.461 62.000 199.198 L 62.000 174.935 63.900 173.715 C 66.254 172.204,72.656 168.475,74.741 167.400 C 75.595 166.960,76.543 166.389,76.849 166.132 C 77.154 165.875,77.901 165.540,78.507 165.388 C 79.114 165.235,79.743 164.895,79.905 164.631 C 80.067 164.367,81.440 163.442,82.955 162.576 C 84.471 161.709,86.541 160.525,87.555 159.945 C 88.570 159.365,89.940 158.576,90.600 158.193 C 91.260 157.810,92.610 157.060,93.600 156.528 C 94.590 155.996,95.760 155.342,96.200 155.075 C 96.640 154.808,97.900 154.067,99.000 153.427 C 100.100 152.788,101.308 152.004,101.684 151.685 C 102.473 151.016,104.843 151.300,105.710 152.167 C 106.004 152.461,107.405 153.294,108.823 154.017 C 110.240 154.741,111.679 155.568,112.020 155.856 C 112.361 156.143,113.891 157.036,115.420 157.839 C 116.949 158.642,118.484 159.547,118.831 159.850 C 119.179 160.152,119.707 160.400,120.006 160.400 C 120.304 160.400,120.920 160.746,121.374 161.169 C 122.160 161.901,125.531 163.864,129.000 165.610 C 129.880 166.053,132.040 167.301,133.800 168.383 C 135.560 169.465,137.720 170.722,138.600 171.177 C 139.480 171.631,140.920 172.443,141.800 172.982 C 146.759 176.018,147.200 175.700,147.200 169.098 C 147.200 163.057,146.045 161.265,141.099 159.633 C 140.328 159.378,139.377 158.817,138.986 158.385 C 138.596 157.953,138.107 157.600,137.901 157.600 C 137.695 157.600,137.069 157.240,136.509 156.800 C 135.950 156.360,135.200 156.000,134.842 156.000 C 134.485 156.000,133.978 155.656,133.715 155.236 C 133.453 154.816,132.702 154.354,132.047 154.210 C 131.391 154.066,130.641 153.690,130.379 153.374 C 130.117 153.058,129.716 152.800,129.489 152.800 C 129.261 152.800,128.519 152.382,127.838 151.871 C 127.157 151.359,126.301 150.831,125.936 150.697 C 125.572 150.563,124.068 149.721,122.596 148.827 C 121.123 147.932,119.797 147.200,119.648 147.200 C 119.500 147.200,118.944 146.885,118.414 146.500 C 117.884 146.115,116.332 145.170,114.964 144.400 C 113.597 143.630,110.678 141.965,108.479 140.700 C 104.056 138.156,103.728 138.073,102.354 139.143 M106.386 140.624 C 107.722 141.406,109.397 142.309,110.107 142.629 C 110.818 142.950,111.760 143.430,112.200 143.696 C 115.285 145.563,116.329 146.213,117.274 146.856 C 117.865 147.257,119.395 148.139,120.674 148.815 C 121.954 149.491,124.440 150.927,126.200 152.005 C 129.141 153.806,129.874 154.203,132.200 155.252 C 132.640 155.450,133.810 156.146,134.800 156.798 C 135.790 157.450,136.967 158.149,137.416 158.350 C 137.865 158.552,138.458 158.988,138.733 159.319 C 139.008 159.650,139.669 160.031,140.202 160.165 C 141.322 160.446,144.769 162.676,145.487 163.584 C 146.216 164.505,146.178 172.954,145.442 173.565 C 145.012 173.922,144.741 173.884,144.256 173.399 C 143.911 173.054,143.037 172.495,142.314 172.158 C 139.993 171.075,138.645 170.329,136.598 168.993 C 135.497 168.275,133.157 166.932,131.398 166.008 C 129.639 165.085,126.940 163.536,125.400 162.567 C 123.860 161.597,121.880 160.441,121.000 159.998 C 120.120 159.554,118.590 158.656,117.600 158.002 C 115.894 156.875,114.968 156.371,113.600 155.826 C 113.270 155.695,112.190 155.057,111.200 154.408 C 110.210 153.760,108.837 152.972,108.149 152.656 C 107.461 152.340,106.783 151.896,106.643 151.670 C 106.503 151.444,105.716 151.042,104.894 150.779 C 104.072 150.515,103.089 150.027,102.708 149.695 C 102.090 149.155,101.991 149.158,101.775 149.721 C 101.642 150.068,101.008 150.466,100.367 150.607 C 99.725 150.748,99.200 151.034,99.200 151.242 C 99.200 151.450,98.716 151.804,98.124 152.029 C 97.533 152.254,96.803 152.789,96.502 153.219 C 96.201 153.648,95.515 154.000,94.977 154.000 C 94.440 154.000,93.645 154.355,93.210 154.790 C 92.776 155.224,91.972 155.692,91.425 155.830 C 90.877 155.967,90.320 156.422,90.187 156.840 C 90.023 157.358,89.574 157.600,88.776 157.600 C 88.040 157.600,87.422 157.896,87.107 158.400 C 86.832 158.840,86.326 159.200,85.981 159.200 C 85.637 159.200,84.745 159.650,84.000 160.200 C 83.255 160.750,82.371 161.200,82.036 161.200 C 81.702 161.200,81.062 161.559,80.614 161.998 C 78.660 163.913,77.216 164.800,76.056 164.800 C 75.238 164.800,74.685 165.067,74.400 165.600 C 74.165 166.040,73.628 166.400,73.209 166.400 C 72.789 166.400,72.202 166.747,71.905 167.172 C 71.607 167.596,70.854 168.072,70.230 168.228 C 69.606 168.385,69.013 168.827,68.913 169.211 C 68.795 169.664,68.175 169.998,67.150 170.162 C 66.281 170.301,65.473 170.665,65.356 170.971 C 65.238 171.277,64.726 171.632,64.217 171.760 C 63.707 171.888,62.730 172.484,62.045 173.085 L 60.800 174.178 60.800 199.028 C 60.800 225.405,60.868 226.400,62.683 226.400 C 63.027 226.400,63.725 226.850,64.235 227.400 C 64.756 227.962,65.608 228.400,66.181 228.400 C 66.741 228.400,67.200 228.551,67.200 228.736 C 67.200 229.179,69.030 230.000,70.019 230.000 C 70.448 230.000,70.800 230.268,70.800 230.595 C 70.800 230.922,71.433 231.454,72.206 231.777 C 72.979 232.100,73.718 232.642,73.848 232.982 C 73.979 233.322,74.473 233.600,74.947 233.600 C 75.420 233.600,76.032 233.960,76.307 234.400 C 76.612 234.888,77.240 235.200,77.917 235.200 C 78.972 235.200,80.088 235.885,82.320 237.900 C 82.868 238.395,83.629 238.800,84.010 238.800 C 84.391 238.800,84.949 239.166,85.251 239.613 C 85.579 240.098,86.446 240.528,87.400 240.678 C 88.280 240.816,89.235 241.260,89.523 241.665 C 89.810 242.069,90.389 242.400,90.809 242.400 C 91.228 242.400,91.765 242.760,92.000 243.200 C 92.235 243.640,92.678 244.000,92.983 244.000 C 93.289 244.000,94.073 244.450,94.727 245.000 C 95.381 245.550,96.378 246.000,96.944 246.000 C 97.562 246.000,98.142 246.319,98.400 246.800 C 98.635 247.240,99.161 247.600,99.568 247.600 C 99.975 247.600,100.611 248.062,100.980 248.626 C 101.743 249.790,103.498 249.707,105.000 248.437 C 106.201 247.420,108.869 245.701,110.000 245.215 C 110.550 244.978,112.440 243.906,114.200 242.833 C 115.960 241.760,118.626 240.235,120.125 239.444 C 121.624 238.654,123.122 237.735,123.454 237.403 C 123.786 237.072,124.290 236.800,124.575 236.800 C 124.859 236.800,125.522 236.462,126.047 236.049 C 126.572 235.636,128.172 234.694,129.601 233.957 C 131.030 233.219,133.042 232.035,134.071 231.325 C 135.100 230.616,136.540 229.756,137.271 229.414 C 138.002 229.073,139.500 228.267,140.600 227.623 C 141.700 226.979,142.870 226.324,143.200 226.166 C 143.530 226.008,144.101 225.621,144.468 225.306 C 145.558 224.372,146.000 225.842,146.000 230.400 C 146.000 235.249,145.854 235.571,142.902 237.243 C 141.636 237.960,140.510 238.675,140.400 238.831 C 140.290 238.986,138.760 239.872,137.000 240.799 C 135.240 241.726,132.360 243.350,130.600 244.408 C 128.840 245.467,126.497 246.790,125.392 247.350 C 124.288 247.910,122.979 248.746,122.483 249.208 C 121.988 249.670,121.001 250.243,120.291 250.481 C 119.581 250.719,118.730 251.145,118.399 251.429 C 118.069 251.712,117.349 252.140,116.799 252.380 C 116.250 252.620,114.990 253.342,114.000 253.985 C 112.428 255.005,109.077 256.862,105.503 258.694 C 104.193 259.364,102.935 259.056,102.594 257.980 C 102.457 257.551,102.005 257.200,101.589 257.200 C 101.172 257.200,100.509 256.861,100.116 256.447 C 99.722 256.032,98.797 255.564,98.059 255.406 C 97.322 255.248,96.422 254.860,96.059 254.545 C 94.174 252.904,92.818 252.000,92.240 252.000 C 91.885 252.000,91.203 251.550,90.725 251.000 C 90.247 250.450,89.446 250.000,88.946 250.000 C 87.988 250.000,85.561 248.578,84.186 247.210 C 83.738 246.764,83.091 246.400,82.748 246.400 C 82.405 246.400,81.798 246.040,81.400 245.600 C 81.002 245.160,80.268 244.800,79.769 244.800 C 79.270 244.800,78.327 244.350,77.673 243.800 C 77.019 243.250,76.208 242.800,75.869 242.800 C 75.531 242.800,75.140 242.440,75.000 242.000 C 74.860 241.560,74.512 241.200,74.227 241.200 C 73.941 241.200,73.279 240.863,72.754 240.451 C 72.229 240.039,71.043 239.575,70.117 239.419 C 68.965 239.225,68.356 238.893,68.190 238.368 C 68.056 237.945,67.676 237.600,67.346 237.600 C 66.713 237.600,64.009 235.729,63.501 234.940 C 63.337 234.685,62.302 234.352,61.201 234.200 C 59.860 234.016,59.200 233.736,59.200 233.353 C 59.200 233.038,58.795 232.621,58.300 232.427 C 57.805 232.232,57.087 231.697,56.704 231.237 C 56.321 230.776,55.601 230.387,55.104 230.371 C 54.607 230.355,53.660 230.025,53.000 229.638 L 51.800 228.935 51.697 199.846 C 51.593 170.357,51.644 169.200,53.051 169.200 C 53.394 169.200,54.131 168.840,54.691 168.400 C 55.250 167.960,56.031 167.600,56.427 167.600 C 56.822 167.600,57.253 167.262,57.384 166.849 C 57.542 166.354,58.148 166.015,59.168 165.852 C 60.017 165.716,60.813 165.343,60.935 165.024 C 61.058 164.705,61.821 164.320,62.631 164.168 C 63.583 163.989,64.172 163.628,64.298 163.146 C 64.406 162.735,64.849 162.400,65.284 162.400 C 65.725 162.400,66.163 162.063,66.274 161.640 C 66.415 161.101,66.971 160.805,68.190 160.622 C 69.135 160.481,70.212 160.029,70.583 159.618 C 70.955 159.208,71.696 158.762,72.229 158.628 C 72.763 158.494,73.200 158.118,73.200 157.792 C 73.200 157.467,73.494 157.200,73.854 157.200 C 74.214 157.200,74.925 156.750,75.435 156.200 C 76.032 155.556,76.795 155.200,77.578 155.200 C 78.360 155.200,78.971 154.915,79.293 154.400 C 79.568 153.960,80.094 153.600,80.464 153.600 C 81.515 153.600,82.400 153.160,82.400 152.638 C 82.400 152.375,83.042 151.929,83.826 151.645 C 84.610 151.361,85.350 150.875,85.469 150.565 C 85.588 150.254,86.206 150.000,86.843 150.000 C 87.479 150.000,88.360 149.640,88.800 149.200 C 89.240 148.760,89.874 148.400,90.209 148.400 C 90.543 148.400,91.022 147.950,91.273 147.400 C 91.571 146.746,92.054 146.400,92.668 146.400 C 93.185 146.400,93.916 146.040,94.293 145.600 C 94.670 145.160,95.374 144.800,95.858 144.800 C 96.342 144.800,97.273 144.350,97.927 143.800 C 98.581 143.250,99.465 142.800,99.893 142.800 C 100.320 142.800,101.374 141.995,102.235 141.011 C 104.109 138.869,103.491 138.927,106.386 140.624 M100.000 167.158 C 96.933 167.862,93.767 168.922,93.169 169.447 C 92.821 169.751,92.236 170.000,91.869 170.000 C 91.501 170.000,90.883 170.315,90.495 170.700 C 90.106 171.085,89.251 171.641,88.595 171.936 C 87.252 172.539,87.375 172.434,83.000 176.733 C 79.688 179.987,77.600 182.571,77.600 183.415 C 77.600 183.683,77.348 184.111,77.039 184.367 C 76.731 184.623,76.358 185.314,76.210 185.903 C 76.062 186.491,75.550 187.788,75.071 188.786 C 73.722 191.596,73.744 206.192,75.100 208.594 C 75.595 209.471,76.000 210.482,76.000 210.840 C 76.000 211.199,76.322 211.921,76.716 212.446 C 77.110 212.971,77.656 213.850,77.929 214.400 C 80.560 219.686,89.378 227.409,93.700 228.211 C 94.525 228.364,95.200 228.641,95.200 228.826 C 95.200 229.252,97.819 229.991,99.400 230.010 C 100.060 230.019,100.949 230.290,101.376 230.613 C 102.445 231.421,111.272 231.433,113.686 230.629 C 114.629 230.315,116.300 229.936,117.400 229.786 C 118.500 229.636,119.760 229.297,120.200 229.033 C 120.640 228.769,121.814 228.249,122.808 227.878 C 125.447 226.894,126.065 225.528,125.917 221.000 C 125.774 216.646,124.717 215.424,122.505 217.059 C 121.880 217.521,120.753 218.035,120.000 218.200 C 119.248 218.365,117.995 218.818,117.216 219.205 C 113.297 221.156,101.907 220.929,97.815 218.818 C 96.944 218.368,95.999 218.000,95.715 218.000 C 95.039 218.000,94.293 217.366,90.464 213.536 C 86.383 209.455,86.217 209.241,85.694 207.365 C 85.454 206.504,84.956 204.990,84.586 204.000 C 83.727 201.696,83.935 193.906,84.896 192.371 C 85.231 191.837,85.625 190.883,85.772 190.251 C 86.044 189.083,89.896 183.600,90.445 183.600 C 90.611 183.600,90.860 183.240,91.000 182.800 C 91.140 182.360,91.457 182.000,91.705 182.000 C 92.114 182.000,93.449 181.201,96.471 179.147 C 97.060 178.746,98.320 178.303,99.271 178.162 C 100.222 178.021,101.450 177.622,102.000 177.276 C 103.394 176.398,109.856 176.381,112.800 177.247 C 114.010 177.604,115.720 178.089,116.600 178.325 C 117.480 178.562,119.441 179.185,120.959 179.711 C 125.655 181.338,126.301 180.657,125.906 174.497 C 125.706 171.376,124.917 170.000,123.327 170.000 C 123.006 170.000,122.489 169.746,122.179 169.436 C 121.869 169.127,120.847 168.745,119.908 168.589 C 118.969 168.433,117.665 168.031,117.011 167.696 C 115.658 167.004,102.491 166.587,100.000 167.158 M114.043 168.158 C 116.156 168.502,119.396 169.285,121.243 169.898 L 124.600 171.011 124.713 175.046 C 124.858 180.191,124.637 180.446,121.261 179.026 C 110.704 174.582,100.215 175.160,92.664 180.600 C 89.589 182.815,85.869 187.332,85.367 189.459 C 85.218 190.086,84.728 191.213,84.278 191.962 C 82.847 194.339,83.053 202.905,84.630 206.600 C 89.557 218.151,101.558 223.851,114.474 220.776 C 116.523 220.288,118.484 219.644,118.831 219.345 C 119.179 219.045,119.726 218.800,120.047 218.800 C 120.368 218.800,121.330 218.444,122.184 218.008 C 124.468 216.843,124.800 217.322,124.800 221.779 C 124.800 225.910,124.345 226.737,121.583 227.631 C 120.822 227.878,119.638 228.329,118.951 228.634 C 114.145 230.770,99.494 230.637,95.803 228.424 C 95.141 228.027,94.150 227.595,93.600 227.464 C 93.050 227.333,91.639 226.590,90.465 225.813 C 89.291 225.036,88.163 224.400,87.958 224.400 C 87.406 224.400,80.221 217.170,79.565 215.954 C 79.254 215.378,78.508 213.995,77.906 212.879 C 70.554 199.247,75.161 181.359,88.144 173.123 C 89.275 172.405,90.380 171.617,90.600 171.372 C 91.223 170.676,96.830 168.798,99.654 168.338 C 101.054 168.110,103.010 167.775,104.000 167.595 C 106.228 167.188,109.064 167.347,114.043 168.158 M320.100 167.476 C 320.485 167.576,321.115 167.576,321.500 167.476 C 321.885 167.375,321.570 167.293,320.800 167.293 C 320.030 167.293,319.715 167.375,320.100 167.476 M310.400 168.000 C 309.056 168.431,310.508 168.431,312.200 168.000 C 313.278 167.726,313.298 167.694,312.400 167.687 C 311.850 167.683,310.950 167.824,310.400 168.000 M159.200 168.756 C 157.885 169.120,157.717 170.448,158.771 172.154 C 159.227 172.891,159.600 173.854,159.600 174.293 C 159.600 174.733,159.937 175.521,160.348 176.046 C 160.759 176.571,161.233 177.630,161.400 178.400 C 161.567 179.170,162.041 180.229,162.452 180.754 C 162.863 181.279,163.200 181.889,163.200 182.110 C 163.200 182.495,163.750 183.771,165.844 188.240 C 166.370 189.362,166.806 190.442,166.813 190.640 C 166.819 190.838,167.268 191.900,167.809 193.000 C 168.350 194.100,168.794 195.203,168.796 195.451 C 168.798 195.699,169.052 196.111,169.361 196.367 C 169.669 196.623,170.041 197.320,170.187 197.916 C 170.434 198.922,171.787 202.057,172.985 204.400 C 173.267 204.950,173.714 206.075,173.979 206.900 C 174.245 207.725,174.614 208.400,174.799 208.400 C 174.985 208.400,175.260 208.985,175.411 209.700 C 175.563 210.415,176.006 211.540,176.398 212.200 C 176.789 212.860,177.242 213.850,177.405 214.400 C 177.567 214.950,178.398 216.831,179.250 218.581 C 180.103 220.330,180.800 222.061,180.800 222.427 C 180.800 222.793,181.143 223.528,181.561 224.060 C 181.980 224.593,182.517 225.750,182.755 226.631 C 183.517 229.464,185.930 230.991,186.815 229.200 C 186.977 228.870,187.561 227.610,188.112 226.400 C 188.662 225.190,189.492 223.378,189.956 222.374 C 190.420 221.369,190.800 220.266,190.800 219.923 C 190.800 219.579,191.074 219.071,191.408 218.793 C 191.743 218.515,192.213 217.509,192.453 216.556 C 192.693 215.604,193.139 214.617,193.444 214.363 C 193.750 214.110,194.006 213.699,194.013 213.451 C 194.019 213.203,194.468 212.100,195.009 211.000 C 195.550 209.900,195.994 208.799,195.996 208.554 C 195.998 208.309,196.337 207.679,196.748 207.154 C 197.159 206.629,197.633 205.570,197.800 204.800 C 197.967 204.030,198.441 202.971,198.852 202.446 C 199.263 201.921,199.600 201.237,199.600 200.925 C 199.600 200.614,199.948 199.693,200.374 198.879 C 200.800 198.066,201.629 196.320,202.215 195.000 C 204.063 190.840,204.690 189.461,205.759 187.194 C 206.332 185.981,206.800 184.749,206.800 184.457 C 206.800 184.165,207.160 183.469,207.600 182.909 C 208.040 182.350,208.400 181.637,208.400 181.325 C 208.400 180.778,208.657 180.215,210.946 175.741 C 211.526 174.609,212.000 173.466,212.000 173.201 C 212.000 172.937,212.290 172.110,212.644 171.364 C 213.770 168.991,212.812 168.399,207.850 168.401 C 204.403 168.401,202.720 169.307,202.200 171.441 C 201.980 172.343,201.608 173.333,201.372 173.641 C 200.842 174.334,198.800 178.964,198.800 179.472 C 198.800 179.677,198.350 180.455,197.800 181.200 C 197.250 181.945,196.800 182.890,196.800 183.298 C 196.800 183.707,196.443 184.707,196.006 185.521 C 194.851 187.674,193.200 191.413,193.200 191.877 C 193.200 192.098,192.863 192.666,192.451 193.142 C 192.039 193.617,191.586 194.724,191.446 195.603 C 191.305 196.481,191.027 197.200,190.826 197.200 C 190.626 197.200,190.246 197.875,189.982 198.700 C 189.718 199.525,189.187 200.830,188.802 201.600 C 186.925 205.353,186.000 207.465,185.998 208.006 C 185.995 209.045,184.042 206.296,183.579 204.600 C 183.339 203.720,182.913 202.820,182.634 202.600 C 182.354 202.380,182.000 201.531,181.847 200.713 C 181.694 199.895,181.333 198.990,181.045 198.702 C 180.757 198.414,180.287 197.463,180.002 196.589 C 179.716 195.715,179.149 194.373,178.741 193.606 C 178.334 192.839,178.000 192.006,178.000 191.755 C 178.000 191.504,177.728 191.073,177.396 190.797 C 177.064 190.522,176.679 189.583,176.539 188.710 C 176.400 187.838,175.977 186.827,175.599 186.462 C 175.222 186.098,174.794 185.260,174.649 184.600 C 174.504 183.940,173.694 181.960,172.849 180.200 C 169.937 174.137,169.253 172.597,168.983 171.499 C 168.325 168.822,163.676 167.518,159.200 168.756 M257.614 169.574 C 257.339 170.087,257.200 180.325,257.200 200.000 C 257.200 219.675,257.339 229.913,257.614 230.426 C 258.011 231.167,258.587 231.200,271.186 231.200 C 287.057 231.200,286.174 231.559,285.919 225.206 C 285.756 221.125,285.919 221.188,275.602 221.229 L 267.404 221.262 267.142 220.331 C 266.998 219.819,266.862 208.298,266.840 194.729 C 266.805 172.868,266.728 169.986,266.171 169.429 C 265.151 168.408,258.175 168.526,257.614 169.574 M166.911 169.901 C 167.260 170.287,167.964 171.502,168.475 172.601 C 168.987 173.701,169.719 175.045,170.103 175.589 C 170.486 176.133,170.800 176.823,170.800 177.122 C 170.800 177.758,172.713 182.234,174.646 186.122 C 175.391 187.619,176.000 189.025,176.000 189.247 C 176.000 189.718,177.412 192.891,179.627 197.401 C 180.492 199.161,181.200 200.784,181.200 201.007 C 181.200 201.229,181.534 202.039,181.941 202.806 C 182.349 203.573,182.911 204.920,183.189 205.800 C 183.468 206.680,184.158 207.895,184.722 208.499 L 185.748 209.598 187.840 205.299 C 188.990 202.935,190.413 199.830,191.001 198.400 C 191.589 196.970,192.493 194.900,193.011 193.800 C 195.708 188.068,197.200 184.672,197.202 184.260 C 197.204 184.007,197.449 183.350,197.748 182.800 C 200.122 178.432,202.206 173.796,202.597 172.011 C 203.021 170.082,204.780 169.202,208.200 169.208 C 212.499 169.215,212.824 169.976,210.500 174.586 C 209.950 175.678,209.070 177.712,208.545 179.107 C 208.021 180.501,207.343 182.037,207.039 182.521 C 206.736 183.004,205.637 185.380,204.597 187.800 C 202.040 193.753,202.056 193.719,201.638 194.400 C 201.049 195.362,199.320 199.184,198.201 202.000 C 197.633 203.430,196.557 205.860,195.810 207.400 C 193.701 211.748,192.000 215.535,192.000 215.883 C 192.000 216.057,191.214 217.820,190.253 219.800 C 188.697 223.008,187.957 224.701,186.457 228.492 C 186.160 229.243,185.828 229.509,185.398 229.344 C 184.814 229.120,181.200 222.249,181.200 221.363 C 181.200 220.965,177.856 213.282,176.690 211.000 C 175.750 209.162,174.516 206.310,174.191 205.227 C 174.031 204.691,173.472 203.450,172.950 202.467 C 172.427 201.485,172.000 200.460,172.000 200.189 C 172.000 199.919,171.742 199.483,171.426 199.221 C 171.110 198.959,170.729 198.172,170.580 197.472 C 170.430 196.773,170.069 195.750,169.777 195.200 C 169.485 194.650,168.579 192.670,167.764 190.800 C 166.950 188.930,166.039 187.045,165.741 186.611 C 165.444 186.177,165.200 185.582,165.200 185.289 C 165.200 184.686,164.307 182.620,161.791 177.400 C 159.398 172.437,158.620 169.710,159.529 169.470 C 161.523 168.943,166.296 169.222,166.911 169.901 M225.721 170.032 C 224.753 170.392,223.845 171.909,223.422 173.872 C 223.272 174.572,222.890 175.359,222.574 175.621 C 222.258 175.883,222.000 176.267,222.000 176.474 C 222.000 176.898,220.346 180.683,219.235 182.800 C 218.831 183.570,218.373 184.785,218.218 185.500 C 218.063 186.215,217.785 186.800,217.599 186.800 C 217.414 186.800,217.040 187.474,216.768 188.298 C 216.496 189.122,215.852 190.589,215.337 191.558 C 214.821 192.526,214.400 193.630,214.400 194.011 C 214.400 194.391,214.142 194.917,213.826 195.179 C 213.510 195.441,213.126 196.228,212.974 196.928 C 212.821 197.627,212.359 198.629,211.948 199.154 C 211.537 199.679,211.200 200.275,211.200 200.479 C 211.200 200.899,209.540 204.694,208.435 206.800 C 208.031 207.570,207.576 208.773,207.424 209.472 C 207.273 210.172,206.890 210.959,206.574 211.221 C 206.258 211.483,206.000 211.867,206.000 212.074 C 206.000 212.490,204.375 216.219,203.243 218.400 C 202.844 219.170,202.389 220.326,202.234 220.968 C 202.078 221.611,201.602 222.580,201.175 223.122 C 200.749 223.664,200.400 224.349,200.400 224.644 C 200.400 224.939,200.041 225.770,199.601 226.490 C 197.439 230.037,198.472 231.200,203.785 231.200 L 207.505 231.200 208.592 229.776 C 209.189 228.992,209.858 227.687,210.079 226.876 C 210.299 226.064,210.709 225.130,210.989 224.800 C 211.270 224.470,211.729 223.485,212.010 222.611 C 212.291 221.737,212.747 220.796,213.024 220.519 C 213.301 220.242,213.649 219.292,213.799 218.408 C 213.948 217.524,214.240 216.800,214.448 216.800 C 214.655 216.800,214.932 216.485,215.063 216.100 C 215.194 215.715,215.733 214.458,216.259 213.306 C 216.786 212.155,217.324 210.681,217.454 210.032 C 217.584 209.382,217.930 208.759,218.223 208.647 C 218.516 208.534,218.879 207.758,219.029 206.921 C 219.179 206.084,219.521 205.130,219.790 204.800 C 220.441 204.002,222.800 199.057,222.800 198.491 C 222.800 198.246,223.143 197.450,223.561 196.723 C 223.980 195.995,224.439 194.860,224.581 194.200 C 224.724 193.540,225.273 192.683,225.802 192.295 L 226.765 191.589 227.247 193.199 C 227.512 194.085,227.970 195.009,228.265 195.254 C 228.559 195.498,228.800 196.045,228.800 196.470 C 228.800 196.894,229.152 197.907,229.582 198.721 C 230.331 200.137,231.695 203.102,233.575 207.400 C 234.694 209.957,235.669 212.134,236.711 214.400 C 237.167 215.390,237.668 216.650,237.825 217.200 C 237.982 217.750,238.445 218.629,238.855 219.154 C 239.265 219.679,239.600 220.506,239.600 220.993 C 239.600 221.479,239.949 222.280,240.375 222.772 C 240.802 223.263,241.275 224.229,241.426 224.917 C 242.474 229.691,244.195 231.200,248.590 231.200 C 253.563 231.200,254.394 229.965,252.200 225.838 C 251.650 224.804,251.200 223.783,251.200 223.569 C 251.200 223.355,250.390 221.469,249.400 219.379 C 248.410 217.288,247.600 215.337,247.600 215.043 C 247.600 214.749,247.255 214.069,246.833 213.533 C 246.411 212.996,245.942 211.898,245.791 211.093 C 245.640 210.288,245.261 209.417,244.950 209.158 C 244.638 208.900,244.187 207.909,243.947 206.956 C 243.707 206.004,243.261 205.017,242.956 204.763 C 242.650 204.510,242.400 204.081,242.400 203.811 C 242.400 203.540,241.950 202.473,241.400 201.438 C 240.850 200.404,240.400 199.231,240.400 198.833 C 240.400 198.434,240.040 197.650,239.600 197.091 C 239.160 196.531,238.799 195.832,238.798 195.537 C 238.798 195.242,238.258 193.920,237.600 192.600 C 236.942 191.280,236.402 189.997,236.402 189.749 C 236.401 189.501,236.130 189.074,235.800 188.800 C 235.470 188.526,235.200 187.955,235.200 187.530 C 235.200 187.106,234.848 186.093,234.418 185.279 C 232.882 182.376,231.200 178.527,231.200 177.917 C 231.200 177.577,230.942 177.083,230.626 176.821 C 230.310 176.559,229.930 175.793,229.782 175.118 C 229.015 171.628,227.279 169.453,225.721 170.032 M265.153 170.300 C 265.990 170.996,265.995 171.136,266.097 196.115 C 266.186 217.928,266.279 221.279,266.800 221.609 C 267.130 221.817,271.113 221.991,275.651 221.994 C 282.200 221.999,283.997 222.115,284.363 222.556 C 285.090 223.431,285.217 228.006,284.551 229.295 L 283.979 230.400 271.254 230.400 L 258.528 230.400 258.064 229.381 C 257.726 228.639,257.600 220.672,257.600 200.000 C 257.600 179.328,257.726 171.361,258.064 170.619 C 258.664 169.302,263.682 169.077,265.153 170.300 M227.600 171.755 C 227.600 172.006,227.951 172.867,228.380 173.668 C 228.809 174.468,229.740 176.626,230.447 178.462 C 231.155 180.298,232.063 182.340,232.466 183.000 C 232.868 183.660,233.198 184.442,233.199 184.737 C 233.199 185.032,233.560 185.731,234.000 186.291 C 234.440 186.850,234.800 187.573,234.800 187.897 C 234.800 188.702,238.399 196.772,239.285 197.954 C 239.678 198.479,240.000 199.172,240.000 199.495 C 240.000 200.091,243.842 209.066,244.412 209.800 C 244.582 210.020,245.367 211.854,246.155 213.877 C 247.459 217.220,248.567 219.703,249.674 221.762 C 250.514 223.324,252.397 228.223,252.399 228.851 C 252.405 231.754,244.168 230.718,243.416 227.721 C 243.172 226.749,240.785 221.474,239.161 218.321 C 238.743 217.507,238.395 216.607,238.390 216.321 C 238.384 216.034,237.659 214.360,236.777 212.600 C 235.896 210.840,234.517 207.780,233.713 205.800 C 232.910 203.820,231.926 201.660,231.528 201.000 C 231.129 200.340,230.802 199.507,230.801 199.149 C 230.801 198.791,230.531 198.275,230.203 198.002 C 229.874 197.730,229.406 196.766,229.162 195.860 C 228.918 194.954,228.280 193.348,227.744 192.290 L 226.770 190.367 225.615 191.189 C 224.933 191.675,224.351 192.540,224.191 193.305 C 224.043 194.017,223.699 194.960,223.428 195.400 C 223.156 195.840,221.988 198.360,220.831 201.000 C 219.675 203.640,217.935 207.464,216.964 209.498 C 215.994 211.531,215.200 213.312,215.200 213.454 C 215.200 213.596,214.854 214.452,214.431 215.356 C 211.485 221.654,210.197 224.511,209.333 226.663 C 207.889 230.261,207.572 230.455,203.355 230.316 C 198.540 230.158,198.535 230.217,204.392 217.800 C 207.191 211.866,208.000 210.051,208.000 209.707 C 208.000 209.518,208.789 207.752,209.753 205.782 C 210.717 203.812,211.995 201.030,212.591 199.600 C 213.188 198.170,214.372 195.527,215.222 193.726 C 216.072 191.925,217.238 189.315,217.812 187.926 C 218.386 186.537,219.550 183.960,220.397 182.200 C 222.649 177.524,223.862 174.733,224.134 173.600 C 224.708 171.217,227.600 169.677,227.600 171.755 M335.064 172.322 C 337.012 173.853,338.578 174.886,337.800 174.127 C 336.851 173.201,333.692 170.800,333.423 170.800 C 333.261 170.800,333.999 171.485,335.064 172.322 M295.400 175.450 C 294.681 176.062,294.534 176.305,295.033 176.057 C 295.766 175.693,297.141 174.376,296.749 174.414 C 296.667 174.422,296.060 174.888,295.400 175.450 M312.900 176.276 C 313.285 176.376,313.915 176.376,314.300 176.276 C 314.685 176.175,314.370 176.093,313.600 176.093 C 312.830 176.093,312.515 176.175,312.900 176.276 M320.100 176.276 C 320.485 176.376,321.115 176.376,321.500 176.276 C 321.885 176.175,321.570 176.093,320.800 176.093 C 320.030 176.093,319.715 176.175,320.100 176.276 M309.600 177.000 C 308.294 177.747,308.751 177.755,310.454 177.016 C 311.194 176.694,311.530 176.431,311.200 176.430 C 310.870 176.429,310.150 176.686,309.600 177.000 M297.826 185.900 C 296.962 187.005,296.893 187.190,297.563 186.604 C 298.365 185.904,299.423 184.400,299.114 184.400 C 299.051 184.400,298.472 185.075,297.826 185.900 M338.482 188.373 C 338.980 189.238,339.455 189.878,339.539 189.794 C 339.712 189.621,338.031 186.800,337.755 186.800 C 337.657 186.800,337.984 187.508,338.482 188.373 M349.444 192.600 C 349.773 194.071,350.002 194.390,349.994 193.367 C 349.991 192.945,349.805 192.330,349.582 192.000 C 349.285 191.562,349.248 191.724,349.444 192.600 M285.056 194.084 C 284.921 194.588,284.840 196.710,284.875 198.800 L 284.938 202.600 285.188 198.000 C 285.454 193.086,285.440 192.652,285.056 194.084 M350.140 198.800 C 350.140 200.670,350.209 201.435,350.293 200.500 C 350.377 199.565,350.377 198.035,350.293 197.100 C 350.209 196.165,350.140 196.930,350.140 198.800 M296.366 209.427 C 296.793 210.321,297.447 211.307,297.819 211.616 C 298.443 212.133,298.118 211.555,296.096 208.550 C 295.818 208.137,295.940 208.532,296.366 209.427 M300.400 214.600 C 301.595 215.810,302.663 216.800,302.773 216.800 C 302.883 216.800,301.995 215.810,300.800 214.600 C 299.605 213.390,298.537 212.400,298.427 212.400 C 298.317 212.400,299.205 213.390,300.400 214.600 M223.726 216.569 C 220.373 218.070,220.500 223.982,223.919 225.573 C 226.166 226.618,229.269 225.654,230.894 223.406 C 233.457 219.861,228.000 214.656,223.726 216.569 M228.817 219.100 C 229.967 222.940,228.669 224.495,224.919 223.771 L 223.000 223.400 222.876 221.451 C 222.631 217.593,227.758 215.564,228.817 219.100 M294.783 221.700 C 295.764 222.745,296.619 223.600,296.683 223.600 C 296.984 223.600,296.666 223.241,294.900 221.583 L 293.000 219.800 294.783 221.700 M340.378 221.500 L 339.000 223.000 340.500 221.622 C 341.325 220.863,342.000 220.188,342.000 220.122 C 342.000 219.816,341.662 220.104,340.378 221.500 M312.600 221.181 C 313.368 221.529,315.510 221.756,315.167 221.453 C 315.075 221.372,314.280 221.196,313.400 221.062 C 312.285 220.893,312.042 220.929,312.600 221.181 M317.305 221.887 C 317.914 221.979,318.814 221.977,319.305 221.882 C 319.797 221.787,319.300 221.711,318.200 221.714 C 317.100 221.717,316.697 221.795,317.305 221.887 M300.033 225.749 C 300.445 226.117,302.800 227.200,302.800 227.021 C 302.800 226.790,300.582 225.600,300.153 225.600 C 299.996 225.600,299.942 225.667,300.033 225.749 M315.500 230.693 C 316.435 230.777,317.965 230.777,318.900 230.693 C 319.835 230.609,319.070 230.540,317.200 230.540 C 315.330 230.540,314.565 230.609,315.500 230.693 " stroke="none" fill="#8fc2cb" fill-rule="evenodd"></path><path id="path4" d="M102.235 141.011 C 101.374 141.995,100.320 142.800,99.893 142.800 C 99.465 142.800,98.581 143.250,97.927 143.800 C 97.273 144.350,96.342 144.800,95.858 144.800 C 95.374 144.800,94.670 145.160,94.293 145.600 C 93.916 146.040,93.185 146.400,92.668 146.400 C 92.054 146.400,91.571 146.746,91.273 147.400 C 91.022 147.950,90.543 148.400,90.209 148.400 C 89.874 148.400,89.240 148.760,88.800 149.200 C 88.360 149.640,87.479 150.000,86.843 150.000 C 86.206 150.000,85.588 150.254,85.469 150.565 C 85.350 150.875,84.610 151.361,83.826 151.645 C 83.042 151.929,82.400 152.375,82.400 152.638 C 82.400 153.160,81.515 153.600,80.464 153.600 C 80.094 153.600,79.568 153.960,79.293 154.400 C 78.971 154.915,78.360 155.200,77.578 155.200 C 76.795 155.200,76.032 155.556,75.435 156.200 C 74.925 156.750,74.214 157.200,73.854 157.200 C 73.494 157.200,73.200 157.467,73.200 157.792 C 73.200 158.118,72.763 158.494,72.229 158.628 C 71.696 158.762,70.955 159.208,70.583 159.618 C 70.212 160.029,69.135 160.481,68.190 160.622 C 66.971 160.805,66.415 161.101,66.274 161.640 C 66.163 162.063,65.725 162.400,65.284 162.400 C 64.849 162.400,64.406 162.735,64.298 163.146 C 64.172 163.628,63.583 163.989,62.631 164.168 C 61.821 164.320,61.058 164.705,60.935 165.024 C 60.813 165.343,60.017 165.716,59.168 165.852 C 58.148 166.015,57.542 166.354,57.384 166.849 C 57.253 167.262,56.822 167.600,56.427 167.600 C 56.031 167.600,55.250 167.960,54.691 168.400 C 54.131 168.840,53.394 169.200,53.051 169.200 C 51.644 169.200,51.593 170.357,51.697 199.846 L 51.800 228.935 53.000 229.638 C 53.660 230.025,54.607 230.355,55.104 230.371 C 55.601 230.387,56.321 230.776,56.704 231.237 C 57.087 231.697,57.805 232.232,58.300 232.427 C 58.795 232.621,59.200 233.038,59.200 233.353 C 59.200 233.736,59.860 234.016,61.201 234.200 C 62.302 234.352,63.337 234.685,63.501 234.940 C 64.009 235.729,66.713 237.600,67.346 237.600 C 67.676 237.600,68.056 237.945,68.190 238.368 C 68.356 238.893,68.965 239.225,70.117 239.419 C 71.043 239.575,72.229 240.039,72.754 240.451 C 73.279 240.863,73.941 241.200,74.227 241.200 C 74.512 241.200,74.860 241.560,75.000 242.000 C 75.140 242.440,75.531 242.800,75.869 242.800 C 76.208 242.800,77.019 243.250,77.673 243.800 C 78.327 244.350,79.270 244.800,79.769 244.800 C 80.268 244.800,81.002 245.160,81.400 245.600 C 81.798 246.040,82.405 246.400,82.748 246.400 C 83.091 246.400,83.738 246.764,84.186 247.210 C 85.561 248.578,87.988 250.000,88.946 250.000 C 89.446 250.000,90.247 250.450,90.725 251.000 C 91.203 251.550,91.885 252.000,92.240 252.000 C 92.818 252.000,94.174 252.904,96.059 254.545 C 96.422 254.860,97.322 255.248,98.059 255.406 C 98.797 255.564,99.722 256.032,100.116 256.447 C 100.509 256.861,101.172 257.200,101.589 257.200 C 102.005 257.200,102.457 257.551,102.594 257.980 C 102.935 259.056,104.193 259.364,105.503 258.694 C 109.077 256.862,112.428 255.005,114.000 253.985 C 114.990 253.342,116.250 252.620,116.799 252.380 C 117.349 252.140,118.069 251.712,118.399 251.429 C 118.730 251.145,119.581 250.719,120.291 250.481 C 121.001 250.243,121.988 249.670,122.483 249.208 C 122.979 248.746,124.288 247.910,125.392 247.350 C 126.497 246.790,128.840 245.467,130.600 244.408 C 132.360 243.350,135.240 241.726,137.000 240.799 C 138.760 239.872,140.290 238.986,140.400 238.831 C 140.510 238.675,141.636 237.960,142.902 237.243 C 145.854 235.571,146.000 235.249,146.000 230.400 C 146.000 225.842,145.558 224.372,144.468 225.306 C 144.101 225.621,143.530 226.008,143.200 226.166 C 142.870 226.324,141.700 226.979,140.600 227.623 C 139.500 228.267,138.002 229.073,137.271 229.414 C 136.540 229.756,135.100 230.616,134.071 231.325 C 133.042 232.035,131.030 233.219,129.601 233.957 C 128.172 234.694,126.572 235.636,126.047 236.049 C 125.522 236.462,124.859 236.800,124.575 236.800 C 124.290 236.800,123.786 237.072,123.454 237.403 C 123.122 237.735,121.624 238.654,120.125 239.444 C 118.626 240.235,115.960 241.760,114.200 242.833 C 112.440 243.906,110.550 244.978,110.000 245.215 C 108.869 245.701,106.201 247.420,105.000 248.437 C 103.498 249.707,101.743 249.790,100.980 248.626 C 100.611 248.062,99.975 247.600,99.568 247.600 C 99.161 247.600,98.635 247.240,98.400 246.800 C 98.142 246.319,97.562 246.000,96.944 246.000 C 96.378 246.000,95.381 245.550,94.727 245.000 C 94.073 244.450,93.289 244.000,92.983 244.000 C 92.678 244.000,92.235 243.640,92.000 243.200 C 91.765 242.760,91.228 242.400,90.809 242.400 C 90.389 242.400,89.810 242.069,89.523 241.665 C 89.235 241.260,88.280 240.816,87.400 240.678 C 86.446 240.528,85.579 240.098,85.251 239.613 C 84.949 239.166,84.391 238.800,84.010 238.800 C 83.629 238.800,82.868 238.395,82.320 237.900 C 80.088 235.885,78.972 235.200,77.917 235.200 C 77.240 235.200,76.612 234.888,76.307 234.400 C 76.032 233.960,75.420 233.600,74.947 233.600 C 74.473 233.600,73.979 233.322,73.848 232.982 C 73.718 232.642,72.979 232.100,72.206 231.777 C 71.433 231.454,70.800 230.922,70.800 230.595 C 70.800 230.268,70.448 230.000,70.019 230.000 C 69.030 230.000,67.200 229.179,67.200 228.736 C 67.200 228.551,66.741 228.400,66.181 228.400 C 65.608 228.400,64.756 227.962,64.235 227.400 C 63.725 226.850,63.027 226.400,62.683 226.400 C 60.868 226.400,60.800 225.405,60.800 199.028 L 60.800 174.178 62.045 173.085 C 62.730 172.484,63.707 171.888,64.217 171.760 C 64.726 171.632,65.238 171.277,65.356 170.971 C 65.473 170.665,66.281 170.301,67.150 170.162 C 68.175 169.998,68.795 169.664,68.913 169.211 C 69.013 168.827,69.606 168.385,70.230 168.228 C 70.854 168.072,71.607 167.596,71.905 167.172 C 72.202 166.747,72.789 166.400,73.209 166.400 C 73.628 166.400,74.165 166.040,74.400 165.600 C 74.685 165.067,75.238 164.800,76.056 164.800 C 77.216 164.800,78.660 163.913,80.614 161.998 C 81.062 161.559,81.702 161.200,82.036 161.200 C 82.371 161.200,83.255 160.750,84.000 160.200 C 84.745 159.650,85.637 159.200,85.981 159.200 C 86.326 159.200,86.832 158.840,87.107 158.400 C 87.422 157.896,88.040 157.600,88.776 157.600 C 89.574 157.600,90.023 157.358,90.187 156.840 C 90.320 156.422,90.877 155.967,91.425 155.830 C 91.972 155.692,92.776 155.224,93.210 154.790 C 93.645 154.355,94.440 154.000,94.977 154.000 C 95.515 154.000,96.201 153.648,96.502 153.219 C 96.803 152.789,97.533 152.254,98.124 152.029 C 98.716 151.804,99.200 151.450,99.200 151.242 C 99.200 151.034,99.725 150.748,100.367 150.607 C 101.008 150.466,101.642 150.068,101.775 149.721 C 101.991 149.158,102.090 149.155,102.708 149.695 C 103.089 150.027,104.072 150.515,104.894 150.779 C 105.716 151.042,106.503 151.444,106.643 151.670 C 106.783 151.896,107.461 152.340,108.149 152.656 C 108.837 152.972,110.210 153.760,111.200 154.408 C 112.190 155.057,113.270 155.695,113.600 155.826 C 114.968 156.371,115.894 156.875,117.600 158.002 C 118.590 158.656,120.120 159.554,121.000 159.998 C 121.880 160.441,123.860 161.597,125.400 162.567 C 126.940 163.536,129.639 165.085,131.398 166.008 C 133.157 166.932,135.497 168.275,136.598 168.993 C 138.645 170.329,139.993 171.075,142.314 172.158 C 143.037 172.495,143.911 173.054,144.256 173.399 C 144.741 173.884,145.012 173.922,145.442 173.565 C 146.178 172.954,146.216 164.505,145.487 163.584 C 144.769 162.676,141.322 160.446,140.202 160.165 C 139.669 160.031,139.008 159.650,138.733 159.319 C 138.458 158.988,137.865 158.552,137.416 158.350 C 136.967 158.149,135.790 157.450,134.800 156.798 C 133.810 156.146,132.640 155.450,132.200 155.252 C 129.874 154.203,129.141 153.806,126.200 152.005 C 124.440 150.927,121.954 149.491,120.674 148.815 C 119.395 148.139,117.865 147.257,117.274 146.856 C 116.329 146.213,115.285 145.563,112.200 143.696 C 111.760 143.430,110.818 142.950,110.107 142.629 C 109.397 142.309,107.722 141.406,106.386 140.624 C 103.491 138.927,104.109 138.869,102.235 141.011 M108.346 142.649 C 109.013 142.783,109.866 143.231,110.242 143.646 C 110.617 144.061,111.247 144.400,111.641 144.400 C 112.036 144.400,112.844 144.850,113.438 145.400 C 114.031 145.950,114.733 146.400,114.996 146.400 C 115.260 146.400,115.802 146.760,116.200 147.200 C 116.598 147.640,117.168 148.000,117.466 148.000 C 117.764 148.000,118.320 148.365,118.702 148.811 C 119.084 149.257,120.061 149.728,120.874 149.858 C 121.686 149.988,122.444 150.337,122.558 150.635 C 122.672 150.932,123.358 151.457,124.083 151.802 C 126.434 152.921,127.669 153.669,128.442 154.442 C 128.859 154.859,129.615 155.200,130.122 155.200 C 130.630 155.200,131.655 155.650,132.400 156.200 C 133.145 156.750,133.990 157.200,134.278 157.200 C 134.565 157.200,134.800 157.389,134.800 157.620 C 134.800 157.852,135.399 158.291,136.132 158.597 C 136.864 158.903,137.687 159.423,137.959 159.751 C 138.232 160.080,138.964 160.460,139.586 160.597 C 140.208 160.734,141.034 161.195,141.421 161.623 C 141.807 162.050,142.358 162.400,142.644 162.400 C 144.414 162.400,145.200 164.302,145.200 168.588 L 145.200 172.739 143.900 172.103 C 143.185 171.753,142.171 171.137,141.646 170.734 C 141.121 170.330,140.266 170.000,139.746 170.000 C 139.226 170.000,138.800 169.825,138.800 169.610 C 138.800 169.396,138.215 168.922,137.500 168.556 C 136.785 168.191,136.056 167.646,135.880 167.346 C 135.704 167.046,135.223 166.800,134.811 166.800 C 134.399 166.800,133.527 166.350,132.873 165.800 C 132.219 165.250,131.332 164.800,130.901 164.800 C 130.470 164.800,129.631 164.350,129.038 163.800 C 128.444 163.250,127.692 162.800,127.367 162.800 C 127.041 162.800,126.676 162.541,126.554 162.224 C 126.433 161.908,125.827 161.538,125.208 161.402 C 124.589 161.266,123.778 160.818,123.406 160.406 C 123.033 159.995,122.025 159.539,121.164 159.394 C 120.220 159.234,119.600 158.909,119.600 158.572 C 119.600 158.266,119.163 157.906,118.629 157.772 C 118.095 157.637,117.562 157.277,117.444 156.971 C 117.209 156.358,112.493 154.000,111.504 154.000 C 111.164 154.000,110.784 153.736,110.660 153.413 C 110.536 153.090,109.842 152.577,109.117 152.275 C 108.393 151.972,107.553 151.426,107.251 151.062 C 106.949 150.698,106.380 150.400,105.986 150.400 C 105.349 150.400,105.256 149.906,105.134 145.900 C 104.992 141.182,105.296 140.200,106.467 141.606 C 106.834 142.046,107.679 142.516,108.346 142.649 M104.000 167.595 C 103.010 167.775,100.951 168.124,99.424 168.371 C 97.898 168.617,96.551 168.916,96.431 169.035 C 96.150 169.317,100.189 168.831,102.000 168.365 C 105.614 167.435,115.226 168.373,121.033 170.222 L 124.400 171.294 124.400 175.204 C 124.400 179.621,124.147 179.997,121.930 178.866 C 120.175 177.971,117.183 177.084,116.894 177.372 C 116.769 177.498,116.892 177.600,117.167 177.600 C 117.442 177.600,119.024 178.143,120.683 178.808 C 124.720 180.424,124.861 180.293,124.713 175.046 L 124.600 171.011 121.243 169.898 C 115.650 168.042,107.509 166.954,104.000 167.595 M159.559 169.528 C 158.996 169.767,158.981 169.995,159.438 171.400 C 159.724 172.280,159.947 172.640,159.933 172.200 C 159.848 169.501,159.725 169.600,163.167 169.600 L 166.335 169.600 167.200 171.000 C 168.163 172.558,168.688 172.902,167.963 171.500 C 166.882 169.411,166.441 169.198,163.238 169.228 C 161.567 169.244,159.911 169.379,159.559 169.528 M204.100 169.996 C 203.385 170.432,202.803 171.016,202.806 171.294 C 202.810 171.627,202.913 171.656,203.106 171.377 C 204.488 169.387,210.823 168.717,211.396 170.500 C 211.657 171.314,211.704 171.329,211.882 170.648 C 212.315 168.993,206.539 168.509,204.100 169.996 M93.200 170.234 C 91.890 170.770,91.877 170.792,93.000 170.575 C 93.660 170.448,94.371 170.176,94.580 169.972 C 95.059 169.503,94.921 169.529,93.200 170.234 M258.064 170.619 C 257.726 171.361,257.600 179.328,257.600 200.000 C 257.600 220.672,257.726 228.639,258.064 229.381 L 258.528 230.400 271.250 230.400 L 283.972 230.400 284.444 229.500 C 284.908 228.617,284.901 228.614,284.097 229.327 C 282.964 230.332,259.031 230.214,258.391 229.200 C 257.929 228.468,257.868 171.628,258.329 170.902 C 258.876 170.040,263.407 169.782,264.574 170.546 L 265.577 171.203 265.688 196.140 C 265.779 216.422,265.901 221.200,266.343 221.731 C 266.809 222.292,268.105 222.400,275.525 222.492 L 284.164 222.600 284.442 223.600 C 284.675 224.438,284.727 224.467,284.760 223.780 C 284.841 222.119,284.234 222.000,275.620 221.994 C 271.099 221.991,267.130 221.817,266.800 221.609 C 266.279 221.279,266.186 217.928,266.097 196.115 C 265.978 166.891,266.456 169.600,261.420 169.600 C 258.710 169.600,258.499 169.664,258.064 170.619 M226.173 170.723 C 225.365 171.282,224.000 173.326,224.016 173.954 C 224.024 174.309,224.270 174.060,224.561 173.400 C 225.425 171.443,226.618 170.554,227.152 171.471 C 227.385 171.872,227.581 171.997,227.588 171.749 C 227.605 171.096,226.642 170.398,226.173 170.723 M90.520 171.314 C 90.344 171.596,89.275 172.412,88.144 173.127 C 83.113 176.308,77.977 182.986,75.783 189.200 C 74.784 192.029,74.673 192.743,75.504 191.000 C 75.924 190.120,76.383 188.934,76.525 188.364 C 77.583 184.119,83.125 177.052,88.000 173.732 C 90.438 172.072,91.842 170.800,91.235 170.800 C 91.018 170.800,90.696 171.031,90.520 171.314 M54.316 171.916 C 55.761 172.871,56.704 173.431,58.500 174.404 L 60.000 175.216 60.000 199.338 L 60.000 223.461 59.100 224.287 C 58.605 224.742,57.627 225.235,56.928 225.383 C 56.228 225.530,55.444 225.906,55.186 226.217 C 54.927 226.529,54.195 227.043,53.558 227.361 L 52.400 227.939 52.400 199.569 C 52.400 180.187,52.532 171.200,52.816 171.200 C 53.045 171.200,53.720 171.522,54.316 171.916 M210.244 174.044 C 209.621 175.364,209.189 176.522,209.284 176.618 C 209.379 176.713,209.972 175.715,210.600 174.400 C 211.228 173.085,211.661 171.927,211.560 171.827 C 211.460 171.727,210.868 172.724,210.244 174.044 M202.128 173.500 C 201.714 174.828,201.725 174.911,202.230 174.224 C 202.708 173.573,203.039 172.000,202.698 172.000 C 202.642 172.000,202.385 172.675,202.128 173.500 M168.638 173.600 C 168.764 174.150,169.183 175.050,169.568 175.600 C 169.953 176.150,170.400 177.140,170.561 177.800 C 170.722 178.460,171.274 179.900,171.787 181.000 C 172.301 182.100,173.189 184.025,173.761 185.277 C 174.333 186.529,174.976 187.661,175.188 187.793 C 175.401 187.924,175.063 186.990,174.436 185.716 C 172.636 182.055,170.800 177.716,170.800 177.122 C 170.800 176.823,170.485 176.137,170.100 175.597 C 169.715 175.058,169.177 174.163,168.904 173.608 L 168.408 172.600 168.638 173.600 M160.012 173.640 C 160.025 174.198,161.994 177.651,161.998 177.121 C 161.999 176.968,161.550 175.996,161.000 174.962 C 160.450 173.927,160.006 173.333,160.012 173.640 M228.800 174.924 C 228.800 175.744,232.151 183.779,233.252 185.600 C 233.452 185.930,233.875 186.740,234.192 187.400 C 234.510 188.063,234.776 188.311,234.784 187.954 C 234.793 187.599,234.440 186.850,234.000 186.291 C 233.560 185.731,233.199 185.032,233.199 184.737 C 233.198 184.442,232.868 183.660,232.466 183.000 C 232.063 182.340,231.146 180.270,230.427 178.400 C 229.185 175.167,228.800 174.346,228.800 174.924 M200.783 176.673 C 200.510 177.513,200.042 178.555,199.743 178.989 C 199.444 179.423,199.200 179.958,199.200 180.178 C 199.200 180.398,199.476 180.184,199.813 179.703 C 200.522 178.691,201.687 175.554,201.444 175.311 C 201.354 175.220,201.056 175.833,200.783 176.673 M98.772 176.979 C 97.327 177.485,95.368 178.416,94.419 179.049 C 91.051 181.294,90.791 181.476,90.497 181.791 C 89.998 182.324,92.146 181.146,93.000 180.418 C 94.848 178.841,99.099 177.073,103.000 176.260 C 103.484 176.159,103.326 176.086,102.600 176.076 C 101.940 176.067,100.218 176.473,98.772 176.979 M113.576 176.622 C 114.993 176.929,116.225 177.108,116.314 177.020 C 116.585 176.748,113.475 176.003,112.200 176.034 C 111.442 176.053,111.949 176.269,113.576 176.622 M208.411 178.171 C 207.781 179.829,207.954 180.379,208.622 178.839 C 208.947 178.091,209.125 177.391,209.017 177.284 C 208.910 177.177,208.637 177.576,208.411 178.171 M222.432 177.603 C 222.414 177.935,221.592 179.825,220.604 181.803 C 218.565 185.887,218.491 186.100,219.600 184.691 C 220.040 184.131,220.400 183.536,220.400 183.369 C 220.400 183.201,220.955 181.924,221.633 180.532 C 222.312 179.139,222.776 177.775,222.665 177.500 C 222.528 177.160,222.453 177.192,222.432 177.603 M162.000 177.725 C 162.000 177.794,162.454 178.739,163.009 179.825 C 163.564 180.911,163.901 181.350,163.758 180.800 C 163.335 179.171,162.000 176.835,162.000 177.725 M206.932 181.724 C 206.464 182.426,205.957 183.418,205.804 183.930 C 205.652 184.441,204.904 186.121,204.141 187.663 C 203.379 189.206,202.814 190.642,202.885 190.855 C 202.956 191.069,203.713 189.659,204.566 187.722 C 205.420 185.785,206.557 183.421,207.094 182.469 C 208.253 180.413,208.143 179.907,206.932 181.724 M198.254 181.773 C 197.319 183.200,197.446 183.504,198.446 182.233 C 198.911 181.642,199.205 181.072,199.100 180.966 C 198.995 180.861,198.614 181.224,198.254 181.773 M164.013 182.054 C 164.006 182.194,164.269 182.824,164.598 183.454 C 164.926 184.084,165.196 184.319,165.198 183.976 C 165.200 183.390,164.040 181.508,164.013 182.054 M89.500 182.900 C 88.354 183.777,85.199 188.116,85.232 188.770 C 85.259 189.311,85.296 189.316,85.496 188.800 C 85.876 187.821,88.844 183.856,89.756 183.109 C 90.718 182.321,90.494 182.139,89.500 182.900 M197.200 184.153 C 197.200 184.531,196.902 185.416,196.538 186.120 C 195.951 187.256,195.948 187.340,196.512 186.872 C 197.190 186.310,197.836 184.102,197.438 183.705 C 197.307 183.574,197.200 183.776,197.200 184.153 M216.909 189.936 C 215.190 193.814,214.778 195.391,216.292 192.297 C 217.917 188.976,218.845 186.736,218.723 186.431 C 218.656 186.261,217.839 187.838,216.909 189.936 M165.846 186.823 C 166.092 187.140,166.957 188.930,167.769 190.800 C 168.581 192.670,169.505 194.678,169.823 195.262 C 170.140 195.846,170.414 196.656,170.432 197.062 C 170.452 197.528,170.541 197.606,170.674 197.273 C 170.979 196.509,166.769 187.068,165.887 186.539 C 165.518 186.317,165.508 186.387,165.846 186.823 M195.632 187.913 C 195.614 188.195,194.790 190.054,193.800 192.043 C 192.810 194.032,192.001 195.871,192.001 196.130 C 192.002 196.388,192.919 194.761,194.039 192.513 C 195.159 190.264,195.982 188.194,195.869 187.913 C 195.702 187.496,195.657 187.496,195.632 187.913 M234.804 189.050 C 234.800 189.469,237.007 194.545,238.174 196.800 C 239.596 199.549,239.995 200.152,239.998 199.554 C 239.999 199.199,239.673 198.479,239.274 197.954 C 238.875 197.429,238.169 196.100,237.704 195.000 C 236.217 191.477,234.808 188.586,234.804 189.050 M84.469 190.713 C 83.531 192.634,83.502 193.034,84.398 191.706 C 84.878 190.995,85.210 190.235,85.135 190.019 C 85.061 189.803,84.761 190.115,84.469 190.713 M176.006 190.411 C 176.002 190.747,176.231 191.377,176.514 191.811 C 176.797 192.245,177.637 194.040,178.380 195.800 C 179.123 197.560,179.972 199.284,180.266 199.631 C 180.560 199.979,180.800 200.504,180.800 200.798 C 180.800 201.093,180.911 201.222,181.047 201.086 C 181.183 200.950,180.447 199.075,179.411 196.919 C 178.375 194.764,177.186 192.280,176.769 191.400 C 176.352 190.520,176.009 190.075,176.006 190.411 M225.031 191.168 C 224.415 191.810,224.008 192.575,224.124 192.868 C 224.271 193.236,224.347 193.192,224.368 192.727 C 224.386 192.357,224.941 191.669,225.603 191.198 L 226.806 190.341 228.003 192.871 C 228.661 194.262,229.200 195.179,229.200 194.909 C 229.200 194.046,227.050 190.000,226.592 190.000 C 226.348 190.000,225.646 190.526,225.031 191.168 M201.916 193.113 L 201.232 194.600 202.016 193.656 C 202.447 193.136,202.800 192.461,202.800 192.156 C 202.800 191.333,202.670 191.473,201.916 193.113 M74.555 198.600 C 74.556 201.460,74.620 202.578,74.697 201.083 C 74.774 199.589,74.774 197.249,74.696 195.883 C 74.618 194.518,74.555 195.740,74.555 198.600 M83.071 195.602 C 82.926 196.811,82.830 198.700,82.858 199.800 C 82.893 201.134,83.023 200.535,83.251 198.000 C 83.624 193.837,83.493 192.086,83.071 195.602 M222.906 195.562 C 220.909 199.672,218.792 204.526,218.935 204.669 C 219.019 204.753,219.951 202.881,221.007 200.511 C 222.062 198.140,223.184 195.801,223.500 195.313 C 223.816 194.825,224.013 194.268,223.938 194.074 C 223.862 193.881,223.398 194.550,222.906 195.562 M214.378 195.498 C 213.474 197.301,213.487 197.479,214.420 196.083 C 214.904 195.359,215.217 194.683,215.115 194.582 C 215.013 194.480,214.681 194.892,214.378 195.498 M229.216 196.046 C 229.207 196.401,229.560 197.150,230.000 197.709 C 230.440 198.269,230.800 198.932,230.800 199.183 C 230.800 199.434,231.110 200.216,231.489 200.920 C 231.868 201.624,232.759 203.550,233.469 205.200 C 234.179 206.850,234.769 207.965,234.780 207.678 C 234.791 207.391,234.427 206.311,233.970 205.278 C 232.555 202.074,231.127 199.027,230.748 198.400 C 230.548 198.070,230.125 197.260,229.808 196.600 C 229.490 195.937,229.224 195.689,229.216 196.046 M199.879 197.174 C 198.904 198.825,199.053 199.251,200.057 197.683 C 200.520 196.959,200.823 196.290,200.729 196.196 C 200.635 196.102,200.252 196.542,199.879 197.174 M190.849 198.888 C 190.377 200.050,189.709 201.540,189.366 202.200 C 188.853 203.186,188.847 203.293,189.330 202.800 C 189.931 202.187,192.079 197.146,191.841 196.907 C 191.768 196.835,191.322 197.726,190.849 198.888 M170.800 198.297 C 170.800 198.520,171.070 198.926,171.400 199.200 C 171.730 199.474,172.000 199.919,172.000 200.189 C 172.000 200.460,172.421 201.474,172.937 202.442 C 173.452 203.411,174.107 204.923,174.394 205.802 C 174.842 207.179,176.003 209.339,175.999 208.789 C 175.996 208.415,173.564 202.638,173.235 202.224 C 173.050 201.991,172.761 201.350,172.594 200.800 C 172.257 199.691,170.800 197.658,170.800 198.297 M212.383 200.087 C 212.095 200.809,210.991 203.191,209.929 205.381 C 207.591 210.205,207.351 211.463,209.621 206.992 C 211.485 203.322,213.266 199.133,213.053 198.920 C 212.973 198.840,212.672 199.365,212.383 200.087 M197.872 201.819 C 197.502 202.593,197.204 203.446,197.209 203.714 C 197.214 203.981,197.577 203.408,198.016 202.440 C 198.967 200.344,198.839 199.791,197.872 201.819 M240.006 200.652 C 239.993 201.610,244.766 211.767,245.082 211.451 C 245.182 211.351,244.882 210.579,244.416 209.735 C 243.949 208.891,242.768 206.400,241.790 204.200 C 240.813 202.000,240.010 200.403,240.006 200.652 M181.200 202.017 C 181.200 202.350,181.450 202.979,181.755 203.414 C 182.060 203.850,182.526 204.929,182.791 205.812 C 183.832 209.287,186.883 211.128,186.786 208.224 C 186.778 207.991,186.545 208.208,186.268 208.707 L 185.764 209.615 184.730 208.507 C 184.162 207.898,183.468 206.680,183.189 205.800 C 182.549 203.780,181.200 201.214,181.200 202.017 M187.687 205.530 C 187.186 206.508,186.839 207.372,186.916 207.450 C 187.136 207.669,188.877 204.423,188.730 204.067 C 188.659 203.894,188.189 204.552,187.687 205.530 M83.609 204.890 C 83.604 205.270,83.959 206.170,84.399 206.890 C 85.416 208.560,85.421 208.173,84.409 205.944 C 83.974 204.985,83.614 204.511,83.609 204.890 M195.256 207.585 C 194.345 209.349,193.604 211.019,193.609 211.296 C 193.614 211.573,194.423 210.194,195.407 208.231 C 196.390 206.268,197.131 204.598,197.053 204.520 C 196.976 204.442,196.167 205.822,195.256 207.585 M217.703 207.162 C 216.083 210.481,213.600 216.009,213.600 216.296 C 213.600 216.806,214.686 215.022,214.998 214.000 C 215.166 213.450,216.096 211.399,217.065 209.442 C 218.035 207.485,218.777 205.758,218.714 205.604 C 218.651 205.449,218.196 206.150,217.703 207.162 M75.213 206.400 C 75.206 206.510,75.566 207.563,76.014 208.740 C 76.734 210.635,77.289 211.760,79.569 215.954 C 80.338 217.368,86.893 223.889,88.064 224.404 C 88.579 224.631,89.990 225.442,91.200 226.207 C 92.410 226.971,93.650 227.597,93.956 227.598 C 94.262 227.599,93.452 227.040,92.156 226.355 C 90.860 225.670,89.516 224.860,89.169 224.555 C 88.821 224.250,88.344 224.000,88.108 224.000 C 87.467 224.000,80.633 217.184,79.887 215.800 C 78.050 212.394,76.400 208.865,76.400 208.342 C 76.400 207.812,75.243 205.919,75.213 206.400 M234.805 208.600 C 234.805 208.820,235.163 209.540,235.600 210.200 C 236.037 210.860,236.395 211.220,236.395 211.000 C 236.395 210.780,236.037 210.060,235.600 209.400 C 235.163 208.740,234.805 208.380,234.805 208.600 M176.012 209.603 C 176.025 210.212,177.994 213.662,177.998 213.082 C 177.999 212.907,177.550 211.918,177.000 210.885 C 176.450 209.852,176.006 209.275,176.012 209.603 M86.503 211.000 C 87.471 212.726,91.452 216.613,93.400 217.733 L 94.600 218.424 93.400 217.512 C 91.912 216.382,87.244 211.687,86.303 210.373 C 85.919 209.838,86.009 210.120,86.503 211.000 M206.779 212.668 C 206.241 213.902,205.134 216.276,204.321 217.944 C 203.508 219.611,202.903 221.037,202.978 221.111 C 203.053 221.186,203.962 219.481,204.999 217.324 C 206.036 215.166,207.172 212.822,207.524 212.116 C 207.877 211.409,208.073 210.740,207.961 210.628 C 207.849 210.516,207.317 211.434,206.779 212.668 M192.679 213.174 C 192.306 213.806,192.000 214.563,192.000 214.856 C 192.000 215.149,192.371 214.697,192.824 213.851 C 193.790 212.049,193.671 211.494,192.679 213.174 M245.216 212.322 C 245.207 212.609,245.547 213.605,245.971 214.536 C 246.395 215.466,246.862 216.709,247.010 217.297 C 247.158 217.886,247.531 218.577,247.839 218.833 C 248.148 219.089,248.400 219.508,248.400 219.764 C 248.400 220.021,248.768 220.944,249.218 221.815 C 250.664 224.617,252.076 228.424,251.870 228.963 C 251.224 230.646,244.003 230.029,243.999 228.290 C 243.998 228.020,243.454 226.720,242.790 225.400 C 241.435 222.708,241.481 223.071,242.932 226.541 C 244.333 229.890,244.708 230.160,248.213 230.337 C 253.295 230.593,253.434 229.530,249.400 221.200 C 247.802 217.900,247.149 216.463,246.219 214.200 C 245.677 212.880,245.225 212.035,245.216 212.322 M178.427 214.600 C 178.429 215.306,179.570 217.055,179.586 216.376 C 179.594 216.034,179.336 215.404,179.013 214.976 C 178.690 214.549,178.426 214.380,178.427 214.600 M238.260 215.800 C 238.391 216.460,238.850 217.540,239.279 218.200 C 240.084 219.437,240.094 219.322,239.331 217.600 C 239.087 217.050,238.693 216.150,238.454 215.600 C 238.039 214.641,238.031 214.649,238.260 215.800 M191.000 217.334 C 189.812 219.783,189.811 220.000,190.997 218.089 C 191.581 217.147,192.001 216.221,191.930 216.031 C 191.858 215.841,191.440 216.427,191.000 217.334 M122.000 218.048 C 121.230 218.461,120.875 218.799,121.211 218.799 C 121.547 218.800,122.234 218.512,122.737 218.159 C 124.024 217.258,124.182 217.602,124.341 221.656 C 124.508 225.930,124.176 226.494,120.937 227.436 C 119.026 227.991,117.731 228.800,118.753 228.800 C 118.973 228.800,119.251 228.640,119.372 228.445 C 119.493 228.250,120.218 227.973,120.984 227.829 C 123.997 227.264,124.800 226.005,124.800 221.844 C 124.800 217.109,124.503 216.707,122.000 218.048 M223.646 218.551 C 222.925 219.319,222.776 219.879,222.876 221.451 L 223.000 223.400 224.919 223.771 C 228.669 224.495,229.967 222.940,228.817 219.100 C 228.239 217.170,225.242 216.852,223.646 218.551 M212.515 218.900 C 211.930 219.664,209.728 224.472,209.446 225.600 L 209.196 226.600 209.675 225.600 C 209.939 225.050,210.830 223.205,211.655 221.500 C 213.104 218.509,213.324 217.844,212.515 218.900 M96.800 219.567 C 97.350 220.015,98.002 220.386,98.248 220.391 C 98.494 220.396,99.844 220.769,101.248 221.220 C 105.840 222.695,116.240 221.846,118.800 219.787 C 119.130 219.521,119.670 219.205,120.000 219.084 C 120.486 218.905,120.492 218.857,120.031 218.832 C 119.719 218.814,119.179 219.045,118.831 219.345 C 115.528 222.193,102.920 222.185,97.000 219.330 L 95.800 218.752 96.800 219.567 M189.089 221.298 C 187.563 224.406,186.722 226.455,186.900 226.633 C 187.005 226.738,187.478 225.874,187.951 224.712 C 188.423 223.550,189.084 222.081,189.418 221.446 C 189.752 220.811,189.958 220.225,189.877 220.143 C 189.795 220.062,189.441 220.581,189.089 221.298 M181.234 221.182 C 181.116 223.181,185.537 230.272,186.217 229.173 C 186.350 228.957,186.221 228.830,185.930 228.890 C 185.627 228.953,184.845 227.906,184.104 226.446 C 183.391 225.041,182.613 223.657,182.376 223.371 C 182.139 223.085,181.792 222.345,181.607 221.726 C 181.421 221.107,181.253 220.862,181.234 221.182 M201.063 225.190 C 198.942 230.071,198.987 230.173,203.344 230.316 C 205.691 230.393,207.076 230.269,207.466 229.945 C 208.178 229.354,209.331 227.198,209.073 226.940 C 208.971 226.838,208.553 227.440,208.144 228.277 C 207.276 230.054,202.996 230.745,200.993 229.432 L 200.067 228.826 200.804 226.913 C 201.209 225.861,201.838 224.413,202.202 223.695 C 202.566 222.977,202.804 222.225,202.732 222.022 C 202.659 221.820,201.909 223.245,201.063 225.190 M145.017 234.669 C 144.882 235.210,144.285 235.708,143.436 235.988 C 142.685 236.236,141.970 236.700,141.848 237.019 C 141.725 237.339,141.270 237.600,140.835 237.600 C 140.401 237.600,139.802 237.947,139.505 238.372 C 139.207 238.796,138.432 239.274,137.782 239.433 C 137.132 239.592,136.171 240.055,135.646 240.461 C 135.121 240.867,134.457 241.200,134.169 241.200 C 133.881 241.200,133.402 241.547,133.105 241.972 C 132.807 242.396,132.091 242.862,131.512 243.008 C 130.933 243.153,130.148 243.616,129.767 244.036 C 129.387 244.456,128.772 244.800,128.400 244.800 C 128.028 244.800,127.417 245.139,127.042 245.554 C 126.666 245.969,125.809 246.418,125.138 246.552 C 124.466 246.687,123.467 247.203,122.918 247.698 C 122.368 248.194,121.602 248.890,121.214 249.245 C 120.827 249.600,119.880 250.009,119.110 250.153 C 118.340 250.297,117.387 250.772,116.993 251.208 C 116.599 251.644,115.970 252.000,115.596 252.000 C 114.990 252.000,114.411 252.405,111.910 254.580 C 111.531 254.910,110.721 255.298,110.110 255.442 C 109.500 255.587,108.640 256.025,108.200 256.417 C 107.472 257.065,106.451 257.367,105.400 257.246 C 105.161 257.219,105.015 255.635,105.038 253.310 L 105.076 249.419 106.916 248.210 C 107.928 247.544,108.766 246.798,108.778 246.551 C 108.790 246.304,109.476 245.994,110.302 245.862 C 111.128 245.730,112.116 245.257,112.498 244.811 C 112.880 244.365,113.526 244.000,113.934 244.000 C 114.342 244.000,115.002 243.640,115.400 243.200 C 115.798 242.760,116.360 242.400,116.648 242.400 C 116.936 242.400,117.360 242.048,117.591 241.617 C 117.838 241.156,118.623 240.727,119.505 240.573 C 120.327 240.429,121.180 240.089,121.400 239.817 C 121.620 239.545,122.430 239.000,123.200 238.606 C 123.970 238.211,124.690 237.778,124.800 237.644 C 125.048 237.342,127.061 236.180,128.400 235.567 C 132.130 233.859,133.350 233.164,133.722 232.536 C 133.899 232.237,134.619 231.728,135.322 231.404 C 136.025 231.081,136.870 230.652,137.200 230.451 C 137.530 230.250,138.250 229.874,138.800 229.616 C 140.539 228.800,142.432 227.695,143.128 227.089 C 144.800 225.634,144.993 225.914,145.117 229.966 C 145.181 232.075,145.136 234.191,145.017 234.669 M95.800 228.400 C 96.460 228.837,97.267 229.196,97.594 229.197 C 97.921 229.199,97.516 228.840,96.696 228.400 C 94.778 227.372,94.248 227.372,95.800 228.400 M102.200 229.842 C 105.900 230.434,110.858 230.348,114.600 229.626 C 116.462 229.267,116.421 229.258,114.000 229.502 C 110.549 229.849,106.163 229.860,102.000 229.533 L 98.600 229.265 102.200 229.842 " stroke="none" fill="#73bbca" fill-rule="evenodd"></path></g></svg>