<?xml version="1.0" encoding="utf-8"?>
<!-- Generator: Adobe Illustrator 16.0.0, SVG Export Plug-In . SVG Version: 6.00 Build 0)  -->
<!DOCTYPE svg PUBLIC "-//W3C//DTD SVG 1.1//EN" "http://www.w3.org/Graphics/SVG/1.1/DTD/svg11.dtd">
<svg version="1.1" id="Layer_1" xmlns="http://www.w3.org/2000/svg" xmlns:xlink="http://www.w3.org/1999/xlink" x="0px" y="0px"
	 width="331.75px" height="88px" viewBox="0 0 331.75 88" enable-background="new 0 0 331.75 88" xml:space="preserve">
<g>
	<defs>
		<rect id="SVGID_1_" width="331.75" height="88"/>
	</defs>
	<clipPath id="SVGID_2_">
		<use xlink:href="#SVGID_1_"  overflow="visible"/>
	</clipPath>
	<path clip-path="url(#SVGID_2_)" fill="#C50637" d="M69.026,32.903c0.281,13.676-10.578,24.991-24.254,25.271
		C31.095,58.457,19.78,47.597,19.499,33.921C19.218,20.245,30.077,8.93,43.754,8.649C57.43,8.368,68.745,19.227,69.026,32.903"/>
	<path clip-path="url(#SVGID_2_)" fill="#FFFFFF" d="M44.726,20.149H33.898v8.09l4.505,4.505l-4.505,4.504v8.163h10.827
		c9.059,0,13.209-5.846,13.209-12.812C57.935,25.634,53.64,20.149,44.726,20.149 M44.726,39.384h-3.753l6.577-6.578l-6.577-6.577
		v-0.126h3.753c4.367,0,6.136,2.96,6.136,6.424C50.862,35.992,49.272,39.384,44.726,39.384"/>
	<path clip-path="url(#SVGID_2_)" fill="#303731" d="M106.049,8.631v38.366h-6.257l-0.439-3.733
		c-2.085,3.239-5.434,4.336-8.727,4.336c-7.958,0-13.941-5.269-13.941-14.16c0-9.331,5.873-14.161,13.776-14.161
		c2.855,0,7.3,1.537,8.892,4.336V8.631H106.049z M83.381,33.44c0,4.72,3.403,7.958,7.685,7.958c4.225,0,7.848-3.073,7.848-7.958
		c0-4.72-3.623-7.904-7.848-7.904C86.784,25.536,83.381,28.555,83.381,33.44"/>
	<path clip-path="url(#SVGID_2_)" fill="#303731" d="M115.437,35.855c0.439,3.348,3.349,5.763,8.068,5.763
		c2.47,0,5.708-0.933,7.246-2.525l4.281,4.226c-2.855,2.964-7.52,4.391-11.636,4.391c-9.331,0-14.874-5.763-14.874-14.435
		c0-8.233,5.598-14.16,14.38-14.16c9.056,0,14.709,5.598,13.666,16.74H115.437z M130.146,30.311
		c-0.439-3.513-3.184-5.269-7.025-5.269c-3.623,0-6.587,1.756-7.575,5.269H130.146z"/>
	<polygon clip-path="url(#SVGID_2_)" fill="#303731" points="166.43,19.883 154.904,47.106 147.659,47.106 136.078,19.883 
		143.377,19.883 147.109,28.83 151.282,40.246 155.397,28.938 159.129,19.883 	"/>
	<path clip-path="url(#SVGID_2_)" fill="#303731" d="M203.758,23.669c2.086-3.018,5.708-4.336,8.781-4.336
		c8.343,0,13.887,6.203,13.887,14.161c0,7.904-4.995,14.161-13.667,14.161c-2.854,0-7.08-0.879-9.001-3.843v14.491h-6.696V19.938
		C197.062,19.938,202.922,19.753,203.758,23.669 M219.729,33.495c0-4.226-2.854-7.684-7.685-7.684c-4.829,0-7.684,3.458-7.684,7.684
		c0,4.226,3.129,7.684,7.684,7.684C216.601,41.178,219.729,37.72,219.729,33.495"/>
	<polygon clip-path="url(#SVGID_2_)" fill="#303731" points="168.322,18.375 166.552,21.998 170.322,21.998 172.039,18.375 	"/>
	<path clip-path="url(#SVGID_2_)" fill="#303731" d="M82.139,57.313c-0.659,0.65-1.511,0.952-2.436,0.952
		c-2.38,0-3.387-1.639-3.396-3.305c-0.009-1.675,1.08-3.378,3.396-3.378c0.87,0,1.694,0.33,2.353,0.979l-0.805,0.777
		c-0.422-0.411-0.989-0.604-1.548-0.604c-1.547,0-2.215,1.154-2.206,2.226c0.009,1.062,0.622,2.17,2.206,2.17
		c0.559,0,1.191-0.229,1.612-0.65L82.139,57.313z"/>
	<path clip-path="url(#SVGID_2_)" fill="#303731" d="M85.419,56.261c0.074,0.559,0.559,0.962,1.346,0.962
		c0.412,0,0.952-0.156,1.209-0.422l0.714,0.705c-0.476,0.494-1.254,0.732-1.941,0.732c-1.557,0-2.481-0.961-2.481-2.408
		c0-1.373,0.934-2.362,2.399-2.362c1.51,0,2.453,0.935,2.279,2.793H85.419z M87.874,55.336c-0.073-0.586-0.531-0.879-1.172-0.879
		c-0.604,0-1.099,0.293-1.264,0.879H87.874z"/>
	<path clip-path="url(#SVGID_2_)" fill="#303731" d="M94.955,58.119v-2.361c0-0.688-0.375-1.208-1.089-1.208
		c-0.687,0-1.154,0.575-1.154,1.263v2.307h-1.108v-4.521h0.998l0.073,0.612c0.458-0.448,0.916-0.678,1.484-0.678
		c1.062,0,1.913,0.797,1.913,2.216v2.371H94.955z"/>
	<path clip-path="url(#SVGID_2_)" fill="#303731" d="M100.242,52.333v1.282h1.245v0.961h-1.254v1.95
		c0,0.431,0.238,0.641,0.586,0.641c0.173,0,0.375-0.055,0.54-0.137l0.311,0.952c-0.32,0.128-0.586,0.183-0.925,0.191
		c-0.979,0.037-1.62-0.521-1.62-1.647v-1.95h-0.842v-0.961h0.842v-1.163L100.242,52.333z"/>
	<path clip-path="url(#SVGID_2_)" fill="#303731" d="M105.182,53.605l0.082,0.522c0.348-0.56,0.815-0.642,1.273-0.642
		c0.467,0,0.916,0.184,1.163,0.432l-0.504,0.97c-0.229-0.192-0.439-0.293-0.806-0.293c-0.585,0-1.126,0.311-1.126,1.144v2.382
		h-1.117v-4.515H105.182z"/>
	<path clip-path="url(#SVGID_2_)" fill="#303731" d="M110.9,56.261c0.074,0.559,0.559,0.962,1.346,0.962
		c0.412,0,0.952-0.156,1.209-0.422l0.714,0.705c-0.476,0.494-1.254,0.732-1.941,0.732c-1.557,0-2.481-0.961-2.481-2.408
		c0-1.373,0.934-2.362,2.399-2.362c1.51,0,2.453,0.935,2.279,2.793H110.9z M113.354,55.336c-0.073-0.586-0.531-0.879-1.172-0.879
		c-0.604,0-1.099,0.293-1.264,0.879H113.354z"/>
	<rect x="117.066" y="54.622" clip-path="url(#SVGID_2_)" fill="#303731" width="3.378" height="1.025"/>
	<polygon clip-path="url(#SVGID_2_)" fill="#303731" points="126.693,58.146 125.439,58.146 122.775,51.711 124.13,51.711 
		126.062,56.701 128.002,51.711 129.357,51.711 	"/>
	<path clip-path="url(#SVGID_2_)" fill="#303731" d="M134.653,53.606h1.071v4.513h-1.052l-0.056-0.659
		c-0.256,0.531-0.961,0.787-1.465,0.796c-1.336,0.011-2.325-0.814-2.325-2.397c0-1.558,1.035-2.372,2.353-2.362
		c0.604,0,1.181,0.283,1.437,0.732L134.653,53.606z M131.943,55.858c0,0.859,0.595,1.373,1.337,1.373c1.758,0,1.758-2.737,0-2.737
		C132.538,54.494,131.943,54.997,131.943,55.858"/>
	<rect x="138.493" y="51.72" clip-path="url(#SVGID_2_)" fill="#303731" width="1.108" height="6.399"/>
	<path clip-path="url(#SVGID_2_)" fill="#303731" d="M150.774,51.72v6.399h-1.043l-0.073-0.622c-0.349,0.54-0.907,0.723-1.457,0.723
		c-1.327,0-2.325-0.879-2.325-2.361c0-1.558,0.98-2.362,2.298-2.362c0.476,0,1.218,0.256,1.484,0.723V51.72H150.774z
		 M146.993,55.858c0,0.787,0.568,1.328,1.282,1.328c0.705,0,1.309-0.514,1.309-1.328c0-0.788-0.604-1.318-1.309-1.318
		C147.561,54.54,146.993,55.043,146.993,55.858"/>
	<path clip-path="url(#SVGID_2_)" fill="#303731" d="M154.623,56.261c0.074,0.559,0.559,0.962,1.346,0.962
		c0.412,0,0.952-0.156,1.209-0.422l0.714,0.705c-0.476,0.494-1.254,0.732-1.941,0.732c-1.557,0-2.481-0.961-2.481-2.408
		c0-1.373,0.934-2.362,2.399-2.362c1.51,0,2.453,0.935,2.279,2.793H154.623z M157.077,55.336c-0.073-0.586-0.531-0.879-1.172-0.879
		c-0.604,0-1.099,0.293-1.263,0.879H157.077z"/>
	<polygon clip-path="url(#SVGID_2_)" fill="#303731" points="165.805,51.711 165.805,57.003 169.101,57.003 169.101,58.12 
		164.596,58.12 164.596,51.711 	"/>
	<path clip-path="url(#SVGID_2_)" fill="#303731" d="M176.182,55.867c0,1.3-0.888,2.354-2.354,2.354
		c-1.465,0-2.344-1.054-2.344-2.354c0-1.291,0.897-2.353,2.335-2.353S176.182,54.576,176.182,55.867 M172.602,55.867
		c0,0.688,0.412,1.327,1.227,1.327c0.815,0,1.228-0.64,1.228-1.327c0-0.678-0.477-1.337-1.228-1.337
		C173.022,54.53,172.602,55.189,172.602,55.867"/>
	<path clip-path="url(#SVGID_2_)" fill="#303731" d="M179.995,52.333c0,0.87-1.319,0.87-1.319,0
		C178.676,51.464,179.995,51.464,179.995,52.333 M178.777,58.119h1.116v-4.532h-1.116V58.119z"/>
	<path clip-path="url(#SVGID_2_)" fill="#303731" d="M183.764,53.605l0.083,0.522c0.347-0.56,0.813-0.642,1.271-0.642
		c0.468,0,0.916,0.184,1.163,0.432l-0.504,0.97c-0.229-0.192-0.438-0.293-0.806-0.293c-0.585,0-1.125,0.311-1.125,1.144v2.382
		h-1.118v-4.515H183.764z"/>
	<path clip-path="url(#SVGID_2_)" fill="#303731" d="M189.481,56.261c0.074,0.559,0.559,0.962,1.346,0.962
		c0.412,0,0.952-0.156,1.209-0.422l0.714,0.705c-0.476,0.494-1.254,0.732-1.94,0.732c-1.557,0-2.481-0.961-2.481-2.408
		c0-1.373,0.935-2.362,2.399-2.362c1.51,0,2.453,0.935,2.279,2.793H189.481z M191.936,55.336c-0.073-0.586-0.531-0.879-1.172-0.879
		c-0.604,0-1.1,0.293-1.264,0.879H191.936z"/>
	<path clip-path="url(#SVGID_2_)" fill="#C50637" d="M193.875,19.938v27.113h-5.982l-0.439-3.677
		c-2.799,2.746-5.379,4.062-9.166,4.062c-6.477,0-11.196-4.885-11.196-13.283v-1.985l5.294-12.23h1.402v14.161
		c0,4.116,2.25,7.244,6.531,7.244c4.116,0,6.914-3.457,6.914-7.574v-8.197C187.232,25.572,186.894,19.938,193.875,19.938"/>
	
		<line clip-path="url(#SVGID_2_)" fill="none" stroke="#303731" stroke-width="0.25" stroke-miterlimit="10" x1="19.552" y1="69.877" x2="304.659" y2="69.877"/>
	<rect x="19.804" y="74.723" clip-path="url(#SVGID_2_)" fill="#3D3D3B" width="0.578" height="4.646"/>
	<path clip-path="url(#SVGID_2_)" fill="#3D3D3B" d="M24.786,76.084h0.498l0.026,0.523c0.286-0.391,0.684-0.57,1.122-0.57
		c0.83,0,1.44,0.558,1.44,1.521v1.812h-0.544v-1.806c0-0.63-0.372-1.022-0.996-1.022c-0.597,0.008-1.008,0.479-1.008,1.069v1.759
		h-0.538v-3.278V76.084z"/>
	<path clip-path="url(#SVGID_2_)" fill="#3D3D3B" d="M32.144,76.084h0.498l0.026,0.523c0.286-0.391,0.684-0.57,1.122-0.57
		c0.83,0,1.44,0.558,1.44,1.521v1.812h-0.544v-1.806c0-0.63-0.372-1.022-0.996-1.022c-0.597,0.008-1.008,0.479-1.008,1.069v1.759
		h-0.538v-3.278V76.084z"/>
	<path clip-path="url(#SVGID_2_)" fill="#3D3D3B" d="M40.989,76.018c1.002,0,1.705,0.703,1.705,1.719
		c0,0.996-0.717,1.692-1.705,1.692c-0.983,0-1.7-0.696-1.7-1.692C39.289,76.721,40.013,76.018,40.989,76.018 M40.995,76.515
		c-0.67,0-1.162,0.491-1.162,1.222c0,0.69,0.485,1.182,1.156,1.182c0.676,0,1.161-0.491,1.168-1.182
		C42.157,77.006,41.652,76.515,40.995,76.515"/>
	<polygon clip-path="url(#SVGID_2_)" fill="#3D3D3B" points="46.933,76.09 47.464,77.371 48.022,78.791 48.573,77.378 49.104,76.09 
		49.701,76.09 48.321,79.376 47.723,79.376 46.336,76.09 	"/>
	<path clip-path="url(#SVGID_2_)" fill="#3D3D3B" d="M56.25,79.383l-0.014-0.598c-0.259,0.451-0.756,0.663-1.208,0.663
		c-0.942,0-1.679-0.649-1.679-1.719c0-1.062,0.75-1.699,1.686-1.692c0.491,0,0.976,0.226,1.215,0.65l0.006-0.597h0.531v3.278h-0.524
		L56.25,79.383z M55.055,76.555c-0.65,0-1.175,0.465-1.175,1.195c0,0.729,0.525,1.201,1.175,1.201c1.58,0,1.58-2.402,0.006-2.402
		L55.055,76.555z"/>
	<path clip-path="url(#SVGID_2_)" fill="#3D3D3B" d="M62.028,76.097h1.016v0.465h-1.023v1.732c0,0.385,0.127,0.631,0.518,0.631
		c0.146,0,0.312-0.047,0.458-0.12l0.159,0.452c-0.219,0.099-0.418,0.153-0.637,0.159c-0.703,0.013-1.035-0.398-1.035-1.122v-1.732
		h-0.657v-0.465h0.657v-0.902l0.544-0.06V76.097z"/>
	<path clip-path="url(#SVGID_2_)" fill="#3D3D3B" d="M67.7,75.095c0,0.472-0.717,0.472-0.717-0.007
		C66.983,74.617,67.7,74.617,67.7,75.095 M67.063,79.369h0.544v-3.292h-0.544V79.369z"/>
	<path clip-path="url(#SVGID_2_)" fill="#3D3D3B" d="M73.412,76.018c1.002,0,1.705,0.703,1.705,1.719
		c0,0.996-0.717,1.692-1.705,1.692c-0.983,0-1.7-0.696-1.7-1.692C71.711,76.721,72.436,76.018,73.412,76.018 M73.417,76.515
		c-0.67,0-1.162,0.491-1.162,1.222c0,0.69,0.485,1.182,1.156,1.182c0.676,0,1.161-0.491,1.168-1.182
		C74.58,77.006,74.075,76.515,73.417,76.515"/>
	<path clip-path="url(#SVGID_2_)" fill="#3D3D3B" d="M79.223,76.084h0.498l0.026,0.523c0.286-0.391,0.684-0.57,1.122-0.57
		c0.83,0,1.44,0.558,1.44,1.521v1.812h-0.544v-1.806c0-0.63-0.372-1.022-0.996-1.022c-0.597,0.008-1.008,0.479-1.008,1.069v1.759
		h-0.538v-3.278V76.084z"/>
	<path clip-path="url(#SVGID_2_)" fill="#3D3D3B" d="M94.536,78.845c-0.332,0.392-0.903,0.584-1.414,0.584
		c-1.015,0-1.726-0.67-1.726-1.712c0-0.989,0.711-1.7,1.699-1.7c1.003,0,1.766,0.618,1.64,1.925h-2.788
		c0.06,0.604,0.558,0.983,1.188,0.983c0.372,0,0.823-0.146,1.042-0.412l0.366,0.332H94.536z M94.217,77.49
		c-0.026-0.637-0.464-0.981-1.108-0.981c-0.571,0-1.069,0.345-1.162,0.975h2.27V77.49z"/>
	<path clip-path="url(#SVGID_2_)" fill="#3D3D3B" d="M99.71,76.097h1.016v0.465h-1.023v1.732c0,0.385,0.127,0.631,0.518,0.631
		c0.146,0,0.312-0.047,0.458-0.12l0.159,0.452c-0.219,0.099-0.418,0.153-0.637,0.159c-0.703,0.013-1.035-0.398-1.035-1.122v-1.732
		h-0.657v-0.465h0.657v-0.902l0.544-0.06V76.097z"/>
	<path clip-path="url(#SVGID_2_)" fill="#3D3D3B" d="M112.992,74.717v4.646h-0.512l-0.026-0.598
		c-0.266,0.452-0.744,0.664-1.228,0.664c-0.936,0-1.659-0.617-1.659-1.699c0-1.102,0.723-1.699,1.653-1.699
		c0.464,0,0.995,0.213,1.227,0.657v-1.965h0.538L112.992,74.717z M111.266,76.535c-0.637,0-1.155,0.418-1.155,1.188
		c0,0.757,0.518,1.188,1.155,1.188c0.65,0,1.162-0.479,1.162-1.194c0-0.704-0.518-1.182-1.169-1.182H111.266z"/>
	<path clip-path="url(#SVGID_2_)" fill="#3D3D3B" d="M120.436,77.941h-2.774c0.059,0.611,0.544,0.99,1.174,0.99
		c0.372,0,0.824-0.146,1.042-0.412l0.366,0.332c-0.332,0.392-0.903,0.584-1.414,0.584c-1.016,0-1.726-0.67-1.726-1.712
		c0-0.99,0.71-1.7,1.693-1.7c1.002,0,1.765,0.618,1.639,1.932V77.941z M117.668,77.497h2.257c-0.027-0.637-0.465-0.981-1.109-0.981
		c-0.57,0-1.055,0.345-1.148,0.975V77.497z M118.458,75.52v0.033h0.498l0.664-0.863v-0.013h-0.671L118.458,75.52z"/>
	<polygon clip-path="url(#SVGID_2_)" fill="#3D3D3B" points="124.681,76.09 125.212,77.371 125.77,78.791 126.321,77.378 
		126.852,76.09 127.449,76.09 126.069,79.376 125.471,79.376 124.084,76.09 	"/>
	<path clip-path="url(#SVGID_2_)" fill="#3D3D3B" d="M134.237,78.845c-0.332,0.392-0.903,0.584-1.414,0.584
		c-1.015,0-1.726-0.67-1.726-1.712c0-0.989,0.711-1.7,1.699-1.7c1.003,0,1.766,0.618,1.64,1.925h-2.788
		c0.06,0.604,0.558,0.983,1.188,0.983c0.372,0,0.823-0.146,1.042-0.412l0.366,0.332H134.237z M133.918,77.49
		c-0.026-0.637-0.464-0.981-1.108-0.981c-0.571,0-1.069,0.345-1.162,0.975h2.27V77.49z"/>
	<rect x="138.555" y="74.723" clip-path="url(#SVGID_2_)" fill="#3D3D3B" width="0.544" height="4.646"/>
	<path clip-path="url(#SVGID_2_)" fill="#3D3D3B" d="M144.944,76.018c1.002,0,1.705,0.703,1.705,1.719
		c0,0.996-0.717,1.692-1.705,1.692c-0.983,0-1.7-0.696-1.7-1.692C143.244,76.721,143.968,76.018,144.944,76.018 M144.95,76.515
		c-0.67,0-1.162,0.491-1.162,1.222c0,0.69,0.485,1.182,1.156,1.182c0.676,0,1.161-0.491,1.168-1.182
		C146.112,77.006,145.607,76.515,144.95,76.515"/>
	<path clip-path="url(#SVGID_2_)" fill="#3D3D3B" d="M150.755,76.104h0.518l0.026,0.63c0.259-0.438,0.744-0.689,1.262-0.689
		c0.942,0.02,1.632,0.684,1.632,1.692c0,1.035-0.683,1.706-1.666,1.706c-0.464,0-0.982-0.199-1.241-0.664v2.137h-0.531V76.104z
		 M153.649,77.749c0-0.736-0.484-1.175-1.155-1.175c-0.683,0-1.148,0.505-1.148,1.175c0,0.671,0.485,1.176,1.148,1.183
		C153.151,78.932,153.649,78.486,153.649,77.749"/>
	<path clip-path="url(#SVGID_2_)" fill="#3D3D3B" d="M158.306,76.104h0.518l0.026,0.63c0.259-0.438,0.744-0.689,1.262-0.689
		c0.942,0.02,1.632,0.684,1.632,1.692c0,1.035-0.683,1.706-1.666,1.706c-0.464,0-0.982-0.199-1.241-0.664v2.137h-0.531V76.104z
		 M161.2,77.749c0-0.736-0.484-1.175-1.155-1.175c-0.683,0-1.148,0.505-1.148,1.175c0,0.671,0.485,1.176,1.148,1.183
		C160.702,78.932,161.2,78.486,161.2,77.749"/>
	<path clip-path="url(#SVGID_2_)" fill="#3D3D3B" d="M168.791,78.845c-0.332,0.392-0.902,0.584-1.414,0.584
		c-1.015,0-1.726-0.67-1.726-1.712c0-0.989,0.711-1.7,1.699-1.7c1.003,0,1.766,0.618,1.64,1.925h-2.788
		c0.06,0.604,0.558,0.983,1.188,0.983c0.371,0,0.822-0.146,1.042-0.412l0.365,0.332H168.791z M168.473,77.49
		c-0.026-0.637-0.465-0.981-1.108-0.981c-0.571,0-1.069,0.345-1.162,0.975h2.271V77.49z"/>
	<path clip-path="url(#SVGID_2_)" fill="#3D3D3B" d="M173.076,76.097h0.504l0.034,0.478c0.199-0.385,0.597-0.537,0.969-0.537
		c0.451,0,0.916,0.192,1.102,0.717c0.239-0.504,0.69-0.717,1.155-0.717c0.862,0,1.38,0.563,1.38,1.461v1.871h-0.544v-1.871
		c0-0.538-0.312-0.949-0.85-0.949s-0.896,0.424-0.896,0.962v1.858h-0.545v-1.858c0-0.538-0.339-0.962-0.883-0.962
		c-0.537,0-0.889,0.424-0.889,0.962v1.858h-0.544v-3.278L173.076,76.097z"/>
	<path clip-path="url(#SVGID_2_)" fill="#3D3D3B" d="M185.434,78.845c-0.332,0.392-0.903,0.584-1.414,0.584
		c-1.015,0-1.726-0.67-1.726-1.712c0-0.989,0.711-1.7,1.699-1.7c1.003,0,1.766,0.618,1.64,1.925h-2.788
		c0.06,0.604,0.558,0.983,1.188,0.983c0.372,0,0.823-0.146,1.042-0.412l0.366,0.332H185.434z M185.114,77.49
		c-0.025-0.637-0.464-0.981-1.107-0.981c-0.571,0-1.069,0.345-1.162,0.975h2.27V77.49z"/>
	<path clip-path="url(#SVGID_2_)" fill="#3D3D3B" d="M189.713,76.084h0.497l0.026,0.523c0.286-0.391,0.684-0.57,1.122-0.57
		c0.83,0,1.44,0.558,1.44,1.521v1.812h-0.545v-1.806c0-0.63-0.371-1.022-0.995-1.022c-0.598,0.008-1.009,0.479-1.009,1.069v1.759
		h-0.537v-3.278V76.084z"/>
	<path clip-path="url(#SVGID_2_)" fill="#3D3D3B" d="M197.906,76.097h1.017v0.465h-1.023v1.732c0,0.385,0.127,0.631,0.519,0.631
		c0.146,0,0.312-0.047,0.458-0.12l0.159,0.452c-0.22,0.099-0.419,0.153-0.638,0.159c-0.703,0.013-1.035-0.398-1.035-1.122v-1.732
		h-0.656v-0.465h0.656v-0.902l0.544-0.06V76.097z"/>
	<path clip-path="url(#SVGID_2_)" fill="#3D3D3B" d="M211.188,74.717v4.646h-0.512l-0.025-0.598
		c-0.267,0.452-0.743,0.664-1.229,0.664c-0.936,0-1.659-0.617-1.659-1.699c0-1.102,0.724-1.699,1.653-1.699
		c0.464,0,0.995,0.213,1.227,0.657v-1.965h0.538L211.188,74.717z M209.463,76.535c-0.637,0-1.155,0.418-1.155,1.188
		c0,0.757,0.519,1.188,1.155,1.188c0.65,0,1.162-0.479,1.162-1.194c0-0.704-0.519-1.182-1.169-1.182H209.463z"/>
	<path clip-path="url(#SVGID_2_)" fill="#3D3D3B" d="M218.44,78.845c-0.332,0.392-0.903,0.584-1.414,0.584
		c-1.015,0-1.726-0.67-1.726-1.712c0-0.989,0.711-1.7,1.699-1.7c1.003,0,1.766,0.618,1.64,1.925h-2.788
		c0.06,0.604,0.558,0.983,1.188,0.983c0.371,0,0.822-0.146,1.042-0.412l0.365,0.332H218.44z M218.122,77.49
		c-0.026-0.637-0.465-0.981-1.108-0.981c-0.571,0-1.069,0.345-1.162,0.975h2.271V77.49z"/>
	<path clip-path="url(#SVGID_2_)" fill="#3D3D3B" d="M224.823,76.82c-0.286-0.259-0.584-0.319-0.923-0.319
		c-0.451-0.006-0.816,0.153-0.81,0.479c0.007,0.339,0.404,0.438,0.816,0.484c0.597,0.073,1.394,0.192,1.38,1.002
		c-0.013,0.657-0.637,0.982-1.374,0.982c-0.55,0-1.095-0.152-1.466-0.617l0.312-0.378c0.292,0.358,0.764,0.504,1.168,0.504
		c0.358,0,0.816-0.112,0.83-0.511c0.007-0.358-0.379-0.464-0.883-0.524c-0.631-0.079-1.308-0.245-1.308-0.942
		c-0.007-0.697,0.697-0.969,1.328-0.962c0.49,0,0.896,0.119,1.247,0.438l-0.312,0.358L224.823,76.82z"/>
	<path clip-path="url(#SVGID_2_)" fill="#3D3D3B" d="M237.309,78.845c-0.332,0.392-0.903,0.584-1.414,0.584
		c-1.016,0-1.727-0.67-1.727-1.712c0-0.989,0.711-1.7,1.699-1.7c1.003,0,1.766,0.618,1.64,1.925h-2.787
		c0.06,0.604,0.558,0.983,1.188,0.983c0.372,0,0.823-0.146,1.042-0.412l0.366,0.332H237.309z M236.989,77.49
		c-0.026-0.637-0.464-0.981-1.108-0.981c-0.57,0-1.068,0.345-1.161,0.975h2.27V77.49z"/>
	<path clip-path="url(#SVGID_2_)" fill="#3D3D3B" d="M241.587,76.084h0.498l0.026,0.523c0.285-0.391,0.684-0.57,1.121-0.57
		c0.83,0,1.44,0.558,1.44,1.521v1.812h-0.544v-1.806c0-0.63-0.372-1.022-0.996-1.022c-0.597,0.008-1.008,0.479-1.008,1.069v1.759
		h-0.538v-3.278V76.084z"/>
	<path clip-path="url(#SVGID_2_)" fill="#3D3D3B" d="M249.781,76.097h1.016v0.465h-1.023v1.732c0,0.385,0.127,0.631,0.519,0.631
		c0.146,0,0.312-0.047,0.458-0.12l0.159,0.452c-0.22,0.099-0.418,0.153-0.638,0.159c-0.703,0.013-1.035-0.398-1.035-1.122v-1.732
		h-0.656v-0.465h0.656v-0.902l0.545-0.06V76.097z"/>
	<path clip-path="url(#SVGID_2_)" fill="#3D3D3B" d="M255.327,76.084l0.04,0.49c0.226-0.425,0.63-0.544,1.009-0.544
		c0.285-0.007,0.563,0.093,0.763,0.245l-0.246,0.465c-0.172-0.119-0.344-0.179-0.57-0.179c-0.524,0.006-0.963,0.378-0.963,0.982
		v1.825h-0.544v-3.278h0.505L255.327,76.084z"/>
	<path clip-path="url(#SVGID_2_)" fill="#3D3D3B" d="M263.807,78.845c-0.332,0.392-0.903,0.584-1.414,0.584
		c-1.015,0-1.726-0.67-1.726-1.712c0-0.989,0.711-1.7,1.699-1.7c1.003,0,1.766,0.618,1.64,1.925h-2.788
		c0.06,0.604,0.558,0.983,1.188,0.983c0.371,0,0.822-0.146,1.042-0.412l0.365,0.332H263.807z M263.488,77.49
		c-0.026-0.637-0.465-0.981-1.108-0.981c-0.571,0-1.069,0.345-1.162,0.975h2.271V77.49z"/>
	<path clip-path="url(#SVGID_2_)" fill="#3D3D3B" d="M268.084,76.104h0.519l0.026,0.63c0.259-0.438,0.743-0.689,1.262-0.689
		c0.941,0.02,1.632,0.684,1.632,1.692c0,1.035-0.683,1.706-1.666,1.706c-0.464,0-0.982-0.199-1.241-0.664v2.137h-0.531V76.104z
		 M270.979,77.749c0-0.736-0.484-1.175-1.155-1.175c-0.683,0-1.147,0.505-1.147,1.175c0,0.671,0.484,1.176,1.147,1.183
		C270.48,78.932,270.979,78.486,270.979,77.749"/>
	<path clip-path="url(#SVGID_2_)" fill="#3D3D3B" d="M276.147,76.084l0.039,0.49c0.227-0.425,0.631-0.544,1.01-0.544
		c0.285-0.007,0.563,0.093,0.763,0.245l-0.246,0.465c-0.172-0.119-0.344-0.179-0.57-0.179c-0.524,0.006-0.963,0.378-0.963,0.982
		v1.825h-0.544v-3.278h0.505L276.147,76.084z"/>
	<path clip-path="url(#SVGID_2_)" fill="#3D3D3B" d="M282.438,75.095c0,0.472-0.719,0.472-0.719-0.007
		C281.719,74.617,282.438,74.617,282.438,75.095 M281.799,79.369h0.544v-3.292h-0.544V79.369z"/>
	<path clip-path="url(#SVGID_2_)" fill="#3D3D3B" d="M288.764,76.82c-0.285-0.259-0.584-0.319-0.923-0.319
		c-0.451-0.006-0.816,0.153-0.81,0.479c0.007,0.339,0.405,0.438,0.816,0.484c0.598,0.073,1.395,0.192,1.381,1.002
		c-0.014,0.657-0.638,0.982-1.374,0.982c-0.551,0-1.096-0.152-1.467-0.617l0.312-0.378c0.293,0.358,0.764,0.504,1.168,0.504
		c0.359,0,0.817-0.112,0.83-0.511c0.007-0.358-0.378-0.464-0.883-0.524c-0.631-0.079-1.308-0.245-1.308-0.942
		c-0.007-0.697,0.697-0.969,1.328-0.962c0.492,0,0.896,0.119,1.247,0.438l-0.312,0.358L288.764,76.82z"/>
	<path clip-path="url(#SVGID_2_)" fill="#3D3D3B" d="M296.228,78.845c-0.332,0.392-0.902,0.584-1.414,0.584
		c-1.016,0-1.726-0.67-1.726-1.712c0-0.989,0.71-1.7,1.699-1.7c1.002,0,1.766,0.618,1.64,1.925h-2.788
		c0.06,0.604,0.558,0.983,1.188,0.983c0.371,0,0.823-0.146,1.042-0.412l0.365,0.332H296.228z M295.909,77.49
		c-0.026-0.637-0.465-0.981-1.108-0.981c-0.571,0-1.069,0.345-1.162,0.975h2.271V77.49z"/>
	<path clip-path="url(#SVGID_2_)" fill="#3D3D3B" d="M302.61,76.82c-0.285-0.259-0.584-0.319-0.922-0.319
		c-0.452-0.006-0.816,0.153-0.811,0.479c0.007,0.339,0.405,0.438,0.816,0.484c0.598,0.073,1.396,0.192,1.381,1.002
		c-0.013,0.657-0.637,0.982-1.374,0.982c-0.551,0-1.095-0.152-1.467-0.617l0.313-0.378c0.292,0.358,0.762,0.504,1.167,0.504
		c0.358,0,0.816-0.112,0.829-0.511c0.007-0.358-0.378-0.464-0.883-0.524c-0.63-0.079-1.308-0.245-1.308-0.942
		c-0.006-0.697,0.697-0.969,1.328-0.962c0.492,0,0.896,0.119,1.248,0.438l-0.312,0.358L302.61,76.82z"/>
</g>
<rect x="237.709" y="10.001" fill="#303731" width="0.901" height="49.66"/>
<g>
	<defs>
		<rect id="SVGID_3_" width="331.75" height="88"/>
	</defs>
	<clipPath id="SVGID_4_">
		<use xlink:href="#SVGID_3_"  overflow="visible"/>
	</clipPath>
	<path clip-path="url(#SVGID_4_)" fill="#303731" d="M261.077,33.302c-1.821-1.977-3.532-4.046-4.943-6.362
		c-2.39-3.919-3.64-9.582-0.01-13.15c3.883-3.818,11.311-1.492,13.086,3.294c0.683,1.84,3.655,1.05,2.965-0.811
		c-1.813-4.887-6.579-7.616-11.714-7.338c-5.693,0.308-9.4,4.749-9.688,10.216c-0.297,5.657,2.535,10.273,6.242,14.514
		C258.3,33.447,259.651,33.328,261.077,33.302"/>
	<path clip-path="url(#SVGID_4_)" fill="#303731" d="M265.613,37.995c-1.616-0.194-3.215-0.322-4.814-0.324
		c3.54,3.567,7.194,7.011,9.441,10.779c1.013,1.698,3.673,0.16,2.655-1.546C270.907,43.569,268.299,40.749,265.613,37.995"/>
	<path clip-path="url(#SVGID_4_)" fill="#303731" d="M284.851,39.994c-0.148,0.158-0.295,0.315-0.442,0.47
		c-4.582,4.845-9.547,9.272-13.358,14.79c-1.129,1.635,1.532,3.175,2.65,1.556c4.487-6.496,10.662-11.525,15.792-17.478
		C287.997,39.654,286.446,39.876,284.851,39.994"/>
	<path clip-path="url(#SVGID_4_)" fill="#303731" d="M277.652,34.349c1.962-0.155,1.982-3.229,0.006-3.073
		c-3.953,0.312-7.057-3.18-5.382-7.09c1.217-2.842,4.848-4.843,7.492-6.1c2.825-1.344,6.082-1.845,9.183-1.678
		c4.375,0.234,6.038,3.573,5.399,7.569c-0.505,3.16-1.871,6.091-3.641,8.796c1.566-0.583,3.114-1.293,4.658-2.141
		c2.644-5.547,3.908-12.39-1.606-15.96c-3.01-1.948-7.289-1.511-10.607-0.886c-3.952,0.744-7.579,2.769-10.611,5.35
		c-3.051,2.596-4.554,6.111-3.31,10.025C270.352,32.676,274.149,34.626,277.652,34.349"/>
	<path clip-path="url(#SVGID_4_)" fill="#303731" d="M300.222,39.75c-2.818-0.031-5.522,0.325-8.234,1.087
		c-1.24,0.347-1.561,1.513-1.254,2.465c-1.265,0.587-2.516,1.208-3.752,1.868c-1.342,0.718-1.153,2.23-0.271,3.038
		c-0.498,0.183-0.996,0.365-1.495,0.548c-1.237,0.451-1.615,1.771-1.191,2.727l-4.021,0.543c-1.602,0.216-1.942,2.898-0.468,3.529
		c0.228,0.097,0.454,0.193,0.682,0.291c0.78,0.335,1.523,0.151,2.073-0.265c5.494-0.741,10.989-1.483,16.483-2.225
		c2.338-0.316,1.459-3.568-0.506-3.795c-1.049-0.122-2.099-0.231-3.147-0.328c1.03-0.376,2.061-0.753,3.091-1.13
		c1.904-0.696,1.742-3.164-0.013-3.697c0.837-0.299,1.677-0.592,2.53-0.861C302.793,42.895,302.442,39.774,300.222,39.75"/>
	<path clip-path="url(#SVGID_4_)" fill="#303731" d="M268.618,52.204c-0.594-0.376-1.182-0.621-1.768-0.784
		c1.422-1.075,0.446-3.266-1.245-3.42c-0.133-0.012-0.265-0.024-0.396-0.037c0.377-0.304,0.753-0.607,1.13-0.912
		c1.25-1.012,0.277-3.509-1.36-3.3c-2.054,0.262-4.108,0.523-6.162,0.785c-2.378,0.302-2.464,3.983-0.173,3.867
		c-0.659,0.863-0.188,1.987,0.644,2.579c-0.854,0.412-1.703,0.831-2.568,1.224c-1.384,0.628-1.151,2.239-0.229,3.077l-3.727,1.148
		c-2.372,0.729-1.367,4.462,1.021,3.727c4.789-1.475,9.578-2.949,14.367-4.424C269.77,55.235,270.048,53.108,268.618,52.204"/>
	<path clip-path="url(#SVGID_4_)" fill="#303731" d="M278.903,39.249c1.064,0.101,2.156,0.153,3.263,0.153
		c7.471,0,15.594-2.389,20.685-8.24c1.146-1.316,0.115-3.465-1.23-3.465c-0.281,0-0.576,0.093-0.867,0.307
		c-7.355,5.397-14.194,7.534-21.931,7.534c-2.654,0-5.414-0.251-8.336-0.708c-2.978-0.467-5.935-0.841-8.823-0.841
		c-5.19,0-10.158,1.208-14.614,5.259c-0.605,0.552-0.05,1.55,0.592,1.55c0.12,0,0.243-0.035,0.362-0.114
		c4.225-2.826,8.469-3.711,12.76-3.711C266.688,36.973,272.706,38.66,278.903,39.249"/>
</g>
</svg>
