<svg width="74" height="74" xmlns="http://www.w3.org/2000/svg" xmlns:xlink="http://www.w3.org/1999/xlink" xml:space="preserve" overflow="hidden"><g transform="translate(-1117 -290)"><path d="M1158.05 290.007C1159.19 290.615 1160.06 291.553 1161.06 292.333 1162.76 293.641 1164.47 294.923 1166.26 296.113 1166.59 296.337 1166.73 296.562 1166.73 296.985 1166.73 316.823 1166.73 336.675 1166.73 356.513 1166.73 356.843 1166.64 357.108 1166.43 357.359 1164.79 359.288 1163.18 361.231 1161.54 363.161 1160.93 363.888 1160.18 364.165 1159.23 363.901 1155.72 362.963 1152.22 362.051 1148.71 361.152 1148.31 361.046 1148.19 360.888 1148.23 360.517 1148.24 360.372 1148.23 360.227 1148.23 360.081 1148.23 339.807 1148.23 319.533 1148.22 299.245 1148.22 298.637 1148.4 298.227 1148.83 297.804 1151.03 295.61 1153.2 293.403 1155.38 291.183 1155.84 290.72 1156.32 290.297 1156.9 290.007L1158.05 290.007Z" fill="#00F6FF"/><path d="M1191 310.387C1190.5 311.788 1190.33 313.268 1190 314.709 1189.49 316.929 1189.02 319.163 1188.57 321.396 1188.45 322.017 1188.16 322.506 1187.75 322.969 1185.89 325.084 1184.03 327.211 1182.13 329.379 1182.87 329.776 1183.64 329.921 1184.37 330.185 1184.84 330.357 1185.33 330.489 1185.79 330.674 1187.37 331.256 1187.87 332.802 1186.9 334.177 1185.57 336.093 1184.21 337.983 1182.83 339.873 1182.54 340.27 1182.48 340.468 1182.95 340.811 1185.25 342.477 1187.5 344.208 1189.77 345.913 1191.19 346.97 1191.26 348.464 1189.94 349.64 1186.6 352.614 1183.24 355.588 1179.9 358.575 1179.17 359.222 1178.36 359.407 1177.43 359.116 1175.55 358.535 1173.66 357.953 1171.77 357.425 1171.23 357.266 1171.02 357.081 1171.03 356.46 1171.06 350.05 1171.04 343.653 1171.04 337.243 1171.04 324.885 1171.04 312.528 1171.04 300.17 1171.04 299.893 1171.04 299.615 1171.04 299.258 1172.64 300.131 1174.14 300.99 1175.66 301.796 1179.94 304.056 1184.35 305.986 1188.98 307.413 1189.9 307.704 1190.6 308.206 1190.99 309.105L1190.99 310.4Z" fill="#00F6FF"/><path d="M1143.88 331.295C1143.88 340.547 1143.88 349.786 1143.88 359.037 1143.88 359.857 1143.88 359.87 1143.08 359.645 1139.64 358.733 1136.22 357.821 1132.78 356.909 1131.14 356.473 1130.53 354.94 1131.42 353.46 1133.4 350.169 1134.9 346.68 1135.85 342.953 1137.01 338.406 1135.85 334.534 1132.85 331.058 1129.58 327.304 1125.63 324.436 1121.39 321.925 1120.94 321.66 1120.49 321.343 1120 321.158 1118.84 320.682 1118.36 319.797 1118.16 318.621 1117.85 316.625 1117.45 314.656 1117.07 312.673 1116.75 310.995 1117.69 309.832 1119.39 309.832 1123.97 309.832 1128.54 309.832 1133.11 309.832 1133.76 309.832 1133.84 309.673 1133.68 309.065 1133.18 307.188 1132.73 305.298 1132.27 303.408 1131.82 301.558 1133.2 300.21 1135.04 300.659 1137.76 301.333 1140.5 301.994 1143.23 302.615 1143.78 302.734 1143.9 302.972 1143.9 303.488 1143.88 312.752 1143.9 322.031 1143.9 331.295Z" fill="#00F6FF"/></g></svg>